  0
SECTION
  2
HEADER
  9
$ACADVER
  1
AC1015
  9
$ACADMAINTVER
 70
     6
  9
$DWGCODEPAGE
  3
ANSI_1252
  9
$INSBASE
 10
0.0
 20
0.0
 30
0.0
  9
$EXTMIN
 10
1.000000000000000E+20
 20
1.000000000000000E+20
 30
1.000000000000000E+20
  9
$EXTMAX
 10
-1.000000000000000E+20
 20
-1.000000000000000E+20
 30
-1.000000000000000E+20
  9
$LIMMIN
 10
0.0
 20
0.0
  9
$LIMMAX
 10
12.0
 20
9.0
  9
$ORTHOMODE
 70
     0
  9
$REGENMODE
 70
     1
  9
$FILLMODE
 70
     1
  9
$QTEXTMODE
 70
     0
  9
$MIRRTEXT
 70
     1
  9
$LTSCALE
 40
1.0
  9
$ATTMODE
 70
     1
  9
$TEXTSIZE
 40
0.2
  9
$TRACEWID
 40
0.05
  9
$TEXTSTYLE
  7
Standard
  9
$CLAYER
  8
0
  9
$CELTYPE
  6
ByLayer
  9
$CECOLOR
 62
   256
  9
$CELTSCALE
 40
1.0
  9
$DISPSILH
 70
     0
  9
$DIMSCALE
 40
1.0
  9
$DIMASZ
 40
0.18
  9
$DIMEXO
 40
0.0625
  9
$DIMDLI
 40
0.38
  9
$DIMRND
 40
0.0
  9
$DIMDLE
 40
0.0
  9
$DIMEXE
 40
0.18
  9
$DIMTP
 40
0.0
  9
$DIMTM
 40
0.0
  9
$DIMTXT
 40
0.18
  9
$DIMCEN
 40
0.09
  9
$DIMTSZ
 40
0.0
  9
$DIMTOL
 70
     0
  9
$DIMLIM
 70
     0
  9
$DIMTIH
 70
     1
  9
$DIMTOH
 70
     1
  9
$DIMSE1
 70
     0
  9
$DIMSE2
 70
     0
  9
$DIMTAD
 70
     0
  9
$DIMZIN
 70
     0
  9
$DIMBLK
  1

  9
$DIMASO
 70
     1
  9
$DIMSHO
 70
     1
  9
$DIMPOST
  1

  9
$DIMAPOST
  1

  9
$DIMALT
 70
     0
  9
$DIMALTD
 70
     2
  9
$DIMALTF
 40
25.4
  9
$DIMLFAC
 40
1.0
  9
$DIMTOFL
 70
     0
  9
$DIMTVP
 40
0.0
  9
$DIMTIX
 70
     0
  9
$DIMSOXD
 70
     0
  9
$DIMSAH
 70
     0
  9
$DIMBLK1
  1

  9
$DIMBLK2
  1

  9
$DIMSTYLE
  2
Standard
  9
$DIMCLRD
 70
     0
  9
$DIMCLRE
 70
     0
  9
$DIMCLRT
 70
     0
  9
$DIMTFAC
 40
1.0
  9
$DIMGAP
 40
0.09
  9
$DIMJUST
 70
     0
  9
$DIMSD1
 70
     0
  9
$DIMSD2
 70
     0
  9
$DIMTOLJ
 70
     1
  9
$DIMTZIN
 70
     0
  9
$DIMALTZ
 70
     0
  9
$DIMALTTZ
 70
     0
  9
$DIMUPT
 70
     0
  9
$DIMDEC
 70
     4
  9
$DIMTDEC
 70
     4
  9
$DIMALTU
 70
     2
  9
$DIMALTTD
 70
     2
  9
$DIMTXSTY
  7
Standard
  9
$DIMAUNIT
 70
     0
  9
$DIMADEC
 70
     0
  9
$DIMALTRND
 40
0.0
  9
$DIMAZIN
 70
     0
  9
$DIMDSEP
 70
    46
  9
$DIMATFIT
 70
     3
  9
$DIMFRAC
 70
     0
  9
$DIMLDRBLK
  1

  9
$DIMLUNIT
 70
     2
  9
$DIMLWD
 70
    -2
  9
$DIMLWE
 70
    -2
  9
$DIMTMOVE
 70
     0
  9
$LUNITS
 70
     2
  9
$LUPREC
 70
     4
  9
$SKETCHINC
 40
0.1
  9
$FILLETRAD
 40
0.5
  9
$AUNITS
 70
     0
  9
$AUPREC
 70
     0
  9
$MENU
  1
.
  9
$ELEVATION
 40
0.0
  9
$PELEVATION
 40
0.0
  9
$THICKNESS
 40
0.0
  9
$LIMCHECK
 70
     0
  9
$CHAMFERA
 40
0.5
  9
$CHAMFERB
 40
0.5
  9
$CHAMFERC
 40
1.0
  9
$CHAMFERD
 40
0.0
  9
$SKPOLY
 70
     0
  9
$TDCREATE
 40
2458919.776049178
  9
$TDUCREATE
 40
2458919.546882512
  9
$TDUPDATE
 40
2458919.77604919
  9
$TDUUPDATE
 40
2458919.546882523
  9
$TDINDWG
 40
0.0000000116
  9
$TDUSRTIMER
 40
0.0000000116
  9
$USRTIMER
 70
     1
  9
$ANGBASE
 50
0.0
  9
$ANGDIR
 70
     0
  9
$PDMODE
 70
     0
  9
$PDSIZE
 40
0.0
  9
$PLINEWID
 40
0.0
  9
$SPLFRAME
 70
     0
  9
$SPLINETYPE
 70
     6
  9
$SPLINESEGS
 70
     8
  9
$HANDSEED
  5
345
  9
$SURFTAB1
 70
     6
  9
$SURFTAB2
 70
     6
  9
$SURFTYPE
 70
     6
  9
$SURFU
 70
     6
  9
$SURFV
 70
     6
  9
$UCSBASE
  2

  9
$UCSNAME
  2

  9
$UCSORG
 10
0.0
 20
0.0
 30
0.0
  9
$UCSXDIR
 10
1.0
 20
0.0
 30
0.0
  9
$UCSYDIR
 10
0.0
 20
1.0
 30
0.0
  9
$UCSORTHOREF
  2

  9
$UCSORTHOVIEW
 70
     0
  9
$UCSORGTOP
 10
0.0
 20
0.0
 30
0.0
  9
$UCSORGBOTTOM
 10
0.0
 20
0.0
 30
0.0
  9
$UCSORGLEFT
 10
0.0
 20
0.0
 30
0.0
  9
$UCSORGRIGHT
 10
0.0
 20
0.0
 30
0.0
  9
$UCSORGFRONT
 10
0.0
 20
0.0
 30
0.0
  9
$UCSORGBACK
 10
0.0
 20
0.0
 30
0.0
  9
$PUCSBASE
  2

  9
$PUCSNAME
  2

  9
$PUCSORG
 10
0.0
 20
0.0
 30
0.0
  9
$PUCSXDIR
 10
1.0
 20
0.0
 30
0.0
  9
$PUCSYDIR
 10
0.0
 20
1.0
 30
0.0
  9
$PUCSORTHOREF
  2

  9
$PUCSORTHOVIEW
 70
     0
  9
$PUCSORGTOP
 10
0.0
 20
0.0
 30
0.0
  9
$PUCSORGBOTTOM
 10
0.0
 20
0.0
 30
0.0
  9
$PUCSORGLEFT
 10
0.0
 20
0.0
 30
0.0
  9
$PUCSORGRIGHT
 10
0.0
 20
0.0
 30
0.0
  9
$PUCSORGFRONT
 10
0.0
 20
0.0
 30
0.0
  9
$PUCSORGBACK
 10
0.0
 20
0.0
 30
0.0
  9
$USERI1
 70
     0
  9
$USERI2
 70
     0
  9
$USERI3
 70
     0
  9
$USERI4
 70
     0
  9
$USERI5
 70
     0
  9
$USERR1
 40
0.0
  9
$USERR2
 40
0.0
  9
$USERR3
 40
0.0
  9
$USERR4
 40
0.0
  9
$USERR5
 40
0.0
  9
$WORLDVIEW
 70
     1
  9
$SHADEDGE
 70
     3
  9
$SHADEDIF
 70
    70
  9
$TILEMODE
 70
     1
  9
$MAXACTVP
 70
    64
  9
$PINSBASE
 10
0.0
 20
0.0
 30
0.0
  9
$PLIMCHECK
 70
     0
  9
$PEXTMIN
 10
1.000000000000000E+20
 20
1.000000000000000E+20
 30
1.000000000000000E+20
  9
$PEXTMAX
 10
-1.000000000000000E+20
 20
-1.000000000000000E+20
 30
-1.000000000000000E+20
  9
$PLIMMIN
 10
0.0
 20
0.0
  9
$PLIMMAX
 10
12.0
 20
9.0
  9
$UNITMODE
 70
     0
  9
$VISRETAIN
 70
     1
  9
$PLINEGEN
 70
     0
  9
$PSLTSCALE
 70
     1
  9
$TREEDEPTH
 70
  3020
  9
$CMLSTYLE
  2
Standard
  9
$CMLJUST
 70
     0
  9
$CMLSCALE
 40
1.0
  9
$PROXYGRAPHICS
 70
     1
  9
$MEASUREMENT
 70
     0
  9
$CELWEIGHT
370
    -1
  9
$ENDCAPS
280
     0
  9
$JOINSTYLE
280
     0
  9
$LWDISPLAY
290
     1
  9
$INSUNITS
 70
     1
  9
$HYPERLINKBASE
  1

  9
$STYLESHEET
  1

  9
$XEDIT
290
     1
  9
$CEPSNTYPE
380
     0
  9
$PSTYLEMODE
290
     1
  9
$FINGERPRINTGUID
  2
{6B005AE5-C4BA-4185-9F7F-8FA14EB6E1F0}
  9
$VERSIONGUID
  2
{FAEB1C32-E019-11D5-929B-00C0DF256EC4}
  9
$EXTNAMES
290
     1
  9
$PSVPSCALE
 40
0.0
  9
$OLESTARTUP
290
     0
  0
ENDSEC
  0
SECTION
  2
CLASSES
  0
CLASS
  1
ACDBDICTIONARYWDFLT
  2
AcDbDictionaryWithDefault
  3
ObjectDBX Classes
 90
        0
280
     0
281
     0
  0
CLASS
  1
VISUALSTYLE
  2
AcDbVisualStyle
  3
ObjectDBX Classes
 90
     4095
280
     0
281
     0
  0
CLASS
  1
ACDBPLACEHOLDER
  2
AcDbPlaceHolder
  3
ObjectDBX Classes
 90
        0
280
     0
281
     0
  0
CLASS
  1
LAYOUT
  2
AcDbLayout
  3
ObjectDBX Classes
 90
        0
280
     0
281
     0
  0
ENDSEC
  0
SECTION
  2
TABLES
  0
TABLE
  2
VPORT
  5
8
330
0
100
AcDbSymbolTable
 70
     1
  0
VPORT
  5
29
330
8
100
AcDbSymbolTableRecord
100
AcDbViewportTableRecord
  2
*Active
 70
     0
 10
0.0
 20
0.0
 11
1.0
 21
1.0
 12
0.0
 22
0.0
 13
0.0
 23
0.0
 14
0.5
 24
0.5
 15
0.5
 25
0.5
 16
0.0
 26
0.0
 36
1.0
 17
338.2472262066709
 27
-148.4999796178229
 37
0.0
 40
349.9999971998265
 41
0.6285714566946572
 42
50.0
 43
0.0
 44
0.0
 50
0.0
 51
0.0
 71
     0
 72
   100
 73
     1
 74
     3
 75
     0
 76
     0
 77
     0
 78
     0
281
     0
 65
     1
110
0.0
120
0.0
130
0.0
111
1.0
121
0.0
131
0.0
112
0.0
122
1.0
132
0.0
 79
     0
146
0.0
  0
ENDTAB
  0
TABLE
  2
LTYPE
  5
5
330
0
100
AcDbSymbolTable
 70
     1
  0
LTYPE
  5
14
330
5
100
AcDbSymbolTableRecord
100
AcDbLinetypeTableRecord
  2
ByBlock
 70
     0
  3

 72
    65
 73
     0
 40
0.0
  0
LTYPE
  5
15
330
5
100
AcDbSymbolTableRecord
100
AcDbLinetypeTableRecord
  2
ByLayer
 70
     0
  3

 72
    65
 73
     0
 40
0.0
  0
LTYPE
  5
16
330
5
100
AcDbSymbolTableRecord
100
AcDbLinetypeTableRecord
  2
Continuous
 70
     0
  3
Solid line
 72
    65
 73
     0
 40
0.0
  0
ENDTAB
  0
TABLE
  2
LAYER
  5
2
330
0
100
AcDbSymbolTable
 70
     2
  0
LAYER
  5
10
330
2
100
AcDbSymbolTableRecord
100
AcDbLayerTableRecord
  2
0
 70
     0
 62
     7
  6
Continuous
370
    -3
390
F
  0
LAYER
  5
3B
330
2
100
AcDbSymbolTableRecord
100
AcDbLayerTableRecord
  2
Layer 1
 70
     0
 62
     7
  6
Continuous
370
    -3
390
F
  0
ENDTAB
  0
TABLE
  2
STYLE
  5
3
330
0
100
AcDbSymbolTable
 70
     1
  0
STYLE
  5
11
330
3
100
AcDbSymbolTableRecord
100
AcDbTextStyleTableRecord
  2
Standard
 70
     0
 40
0.0
 41
1.0
 50
0.0
 71
     0
 42
0.2
  3
txt
  4

  0
ENDTAB
  0
TABLE
  2
VIEW
  5
6
330
0
100
AcDbSymbolTable
 70
     0
  0
ENDTAB
  0
TABLE
  2
UCS
  5
7
330
0
100
AcDbSymbolTable
 70
     0
  0
ENDTAB
  0
TABLE
  2
APPID
  5
9
330
0
100
AcDbSymbolTable
 70
     1
  0
APPID
  5
12
330
9
100
AcDbSymbolTableRecord
100
AcDbRegAppTableRecord
  2
ACAD
 70
     0
  0
ENDTAB
  0
TABLE
  2
DIMSTYLE
  5
A
330
0
100
AcDbSymbolTable
 70
     1
100
AcDbDimStyleTable
  0
DIMSTYLE
105
27
330
A
100
AcDbSymbolTableRecord
100
AcDbDimStyleTableRecord
  2
Standard
 70
     0
340
11
  0
ENDTAB
  0
TABLE
  2
BLOCK_RECORD
  5
1
330
0
100
AcDbSymbolTable
 70
     1
  0
BLOCK_RECORD
  5
1F
330
1
100
AcDbSymbolTableRecord
100
AcDbBlockTableRecord
  2
*Model_Space
340
22
  0
BLOCK_RECORD
  5
1B
330
1
100
AcDbSymbolTableRecord
100
AcDbBlockTableRecord
  2
*Paper_Space
340
1E
  0
BLOCK_RECORD
  5
23
330
1
100
AcDbSymbolTableRecord
100
AcDbBlockTableRecord
  2
*Paper_Space0
340
26
  0
ENDTAB
  0
ENDSEC
  0
SECTION
  2
BLOCKS
  0
BLOCK
  5
20
330
1F
100
AcDbEntity
  8
0
100
AcDbBlockBegin
  2
*Model_Space
 70
     0
 71
     0
 10
0.0
 20
0.0
 30
0.0
  3
*Model_Space
  1

  0
ENDBLK
  5
21
330
1F
100
AcDbEntity
  8
0
100
AcDbBlockEnd
  0
BLOCK
  5
1C
330
1B
100
AcDbEntity
 67
     1
  8
0
100
AcDbBlockBegin
  2
*Paper_Space
 70
     0
 71
     0
 10
0.0
 20
0.0
 30
0.0
  3
*Paper_Space
  1

  0
ENDBLK
  5
1D
330
1B
100
AcDbEntity
 67
     1
  8
0
100
AcDbBlockEnd
  0
BLOCK
  5
24
330
23
100
AcDbEntity
  8
0
100
AcDbBlockBegin
  2
*Paper_Space0
 70
     0
 71
     0
 10
0.0
 20
0.0
 30
0.0
  3
*Paper_Space0
  1

  0
ENDBLK
  5
25
330
23
100
AcDbEntity
  8
0
100
AcDbBlockEnd
  0
ENDSEC
  0
SECTION
  2
ENTITIES
  0
POLYLINE
  5
3C
330
1F
100
AcDbEntity
  8
Layer 1
 62
   250
370
    25
100
AcDb2dPolyline
 66
     1
 10
0.0
 20
0.0
 30
0.0
  0
VERTEX
  5
3D
330
3C
100
AcDbEntity
  8
Layer 1
 62
   250
370
    25
100
AcDbVertex
100
AcDb2dVertex
 10
8.706445310323389
 20
-59.03240015885302
 30
0.0
  0
VERTEX
  5
3E
330
3C
100
AcDbEntity
  8
Layer 1
 62
   250
370
    25
100
AcDbVertex
100
AcDb2dVertex
 10
6.974251300339771
 20
-58.03228893948499
 30
0.0
  0
SEQEND
  5
3F
330
3C
100
AcDbEntity
  8
Layer 1
370
    25
  0
POLYLINE
  5
40
330
1F
100
AcDbEntity
  8
Layer 1
 62
   250
370
    25
100
AcDb2dPolyline
 66
     1
 10
0.0
 20
0.0
 30
0.0
  0
VERTEX
  5
41
330
40
100
AcDbEntity
  8
Layer 1
 62
   250
370
    25
100
AcDbVertex
100
AcDb2dVertex
 10
22.09873724490934
 20
-59.83631319033606
 30
0.0
  0
VERTEX
  5
42
330
40
100
AcDbEntity
  8
Layer 1
 62
   250
370
    25
100
AcDbVertex
100
AcDb2dVertex
 10
9.974412703669591
 20
-52.83622367385692
 30
0.0
  0
SEQEND
  5
43
330
40
100
AcDbEntity
  8
Layer 1
370
    25
  0
POLYLINE
  5
44
330
1F
100
AcDbEntity
  8
Layer 1
 62
   250
370
    25
100
AcDb2dPolyline
 66
     1
 10
0.0
 20
0.0
 30
0.0
  0
VERTEX
  5
45
330
44
100
AcDbEntity
  8
Layer 1
 62
   250
370
    25
100
AcDbVertex
100
AcDb2dVertex
 10
103.5788628213275
 20
-64.22863767925534
 30
0.0
  0
VERTEX
  5
46
330
44
100
AcDbEntity
  8
Layer 1
 62
   250
370
    25
100
AcDbVertex
100
AcDb2dVertex
 10
5.706283906993568
 20
-64.22863767925534
 30
0.0
  0
SEQEND
  5
47
330
44
100
AcDbEntity
  8
Layer 1
370
    25
  0
POLYLINE
  5
48
330
1F
100
AcDbEntity
  8
Layer 1
 62
   250
370
    25
100
AcDb2dPolyline
 66
     1
 10
0.0
 20
0.0
 30
0.0
  0
VERTEX
  5
49
330
48
100
AcDbEntity
  8
Layer 1
 62
   250
370
    25
100
AcDbVertex
100
AcDb2dVertex
 10
14.70642360743451
 20
-48.64009737282262
 30
0.0
  0
VERTEX
  5
4A
330
48
100
AcDbEntity
  8
Layer 1
 62
   250
370
    25
100
AcDbVertex
100
AcDb2dVertex
 10
25.09855413869064
 20
-54.640247924708
 30
0.0
  0
SEQEND
  5
4B
330
48
100
AcDbEntity
  8
Layer 1
370
    25
  0
POLYLINE
  5
4C
330
1F
100
AcDbEntity
  8
Layer 1
 62
   250
370
    25
100
AcDb2dPolyline
 66
     1
 10
0.0
 20
0.0
 30
0.0
  0
VERTEX
  5
4D
330
4C
100
AcDbEntity
  8
Layer 1
 62
   250
370
    25
100
AcDbVertex
100
AcDb2dVertex
 10
46.54616833688777
 20
10.50805799433479
 30
0.0
  0
VERTEX
  5
4E
330
4C
100
AcDbEntity
  8
Layer 1
 62
   250
370
    25
100
AcDbVertex
100
AcDb2dVertex
 10
43.54617918833221
 20
5.311992728706724
 30
0.0
  0
SEQEND
  5
4F
330
4C
100
AcDbEntity
  8
Layer 1
370
    25
  0
POLYLINE
  5
50
330
1F
100
AcDbEntity
  8
Layer 1
 62
   250
370
    25
100
AcDb2dPolyline
 66
     1
 10
0.0
 20
0.0
 30
0.0
  0
VERTEX
  5
51
330
50
100
AcDbEntity
  8
Layer 1
 62
   250
370
    25
100
AcDbVertex
100
AcDb2dVertex
 10
9.974412703669591
 20
-52.83622367385692
 30
0.0
  0
VERTEX
  5
52
330
50
100
AcDbEntity
  8
Layer 1
 62
   250
370
    25
100
AcDbVertex
100
AcDb2dVertex
 10
6.974251300339771
 20
-58.03246119425925
 30
0.0
  0
SEQEND
  5
53
330
50
100
AcDbEntity
  8
Layer 1
370
    25
  0
POLYLINE
  5
54
330
1F
100
AcDbEntity
  8
Layer 1
 62
   250
370
    25
100
AcDb2dPolyline
 66
     1
 10
0.0
 20
0.0
 30
0.0
  0
VERTEX
  5
55
330
54
100
AcDbEntity
  8
Layer 1
 62
   250
370
    25
100
AcDbVertex
100
AcDb2dVertex
 10
48.27819009209712
 20
9.507946774966763
 30
0.0
  0
VERTEX
  5
56
330
54
100
AcDbEntity
  8
Layer 1
 62
   250
370
    25
100
AcDbVertex
100
AcDb2dVertex
 10
54.74222275107139
 20
20.70416259248021
 30
0.0
  0
SEQEND
  5
57
330
54
100
AcDbEntity
  8
Layer 1
370
    25
  0
POLYLINE
  5
58
330
1F
100
AcDbEntity
  8
Layer 1
 62
   250
370
    25
100
AcDb2dPolyline
 66
     1
 10
0.0
 20
0.0
 30
0.0
  0
VERTEX
  5
59
330
58
100
AcDbEntity
  8
Layer 1
 62
   250
370
    25
100
AcDbVertex
100
AcDb2dVertex
 10
45.27820094354156
 20
4.311881509338696
 30
0.0
  0
VERTEX
  5
5A
330
58
100
AcDbEntity
  8
Layer 1
 62
   250
370
    25
100
AcDbVertex
100
AcDb2dVertex
 10
14.70642360743451
 20
-48.64009737282262
 30
0.0
  0
SEQEND
  5
5B
330
58
100
AcDbEntity
  8
Layer 1
370
    25
  0
POLYLINE
  5
5C
330
1F
100
AcDbEntity
  8
Layer 1
 62
   250
370
    25
100
AcDb2dPolyline
 66
     1
 10
0.0
 20
0.0
 30
0.0
  0
VERTEX
  5
5D
330
5C
100
AcDbEntity
  8
Layer 1
 62
   250
370
    25
100
AcDbVertex
100
AcDb2dVertex
 10
8.706445310323389
 20
-59.03240015885302
 30
0.0
  0
VERTEX
  5
5E
330
5C
100
AcDbEntity
  8
Layer 1
 62
   250
370
    25
100
AcDbVertex
100
AcDb2dVertex
 10
5.706283906993568
 20
-64.22846542448109
 30
0.0
  0
SEQEND
  5
5F
330
5C
100
AcDbEntity
  8
Layer 1
370
    25
  0
POLYLINE
  5
60
330
1F
100
AcDbEntity
  8
Layer 1
 62
   250
370
    25
100
AcDb2dPolyline
 66
     1
 10
0.0
 20
0.0
 30
0.0
  0
VERTEX
  5
61
330
60
100
AcDbEntity
  8
Layer 1
 62
   250
370
    25
100
AcDbVertex
100
AcDb2dVertex
 10
25.0987263934649
 20
-54.64007566993374
 30
0.0
  0
VERTEX
  5
62
330
60
100
AcDbEntity
  8
Layer 1
 62
   250
370
    25
100
AcDbVertex
100
AcDb2dVertex
 10
22.09873724490934
 20
-59.83631319033606
 30
0.0
  0
SEQEND
  5
63
330
60
100
AcDbEntity
  8
Layer 1
370
    25
  0
POLYLINE
  5
64
330
1F
100
AcDbEntity
  8
Layer 1
 62
   250
370
    25
100
AcDb2dPolyline
 66
     1
 10
0.0
 20
0.0
 30
0.0
  0
VERTEX
  5
65
330
64
100
AcDbEntity
  8
Layer 1
 62
   250
370
    25
100
AcDbVertex
100
AcDb2dVertex
 10
55.6345024817511
 20
-1.75028076128118
 30
0.0
  0
VERTEX
  5
66
330
64
100
AcDbEntity
  8
Layer 1
 62
   250
370
    25
100
AcDbVertex
100
AcDb2dVertex
 10
61.63465303363648
 20
8.641677515200692
 30
0.0
  0
SEQEND
  5
67
330
64
100
AcDbEntity
  8
Layer 1
370
    25
  0
POLYLINE
  5
68
330
1F
100
AcDbEntity
  8
Layer 1
 62
   250
370
    25
100
AcDb2dPolyline
 66
     1
 10
0.0
 20
0.0
 30
0.0
  0
VERTEX
  5
69
330
68
100
AcDbEntity
  8
Layer 1
 62
   250
370
    25
100
AcDbVertex
100
AcDb2dVertex
 10
65.09869654405519
 20
2.6420437276381
 30
0.0
  0
VERTEX
  5
6A
330
68
100
AcDbEntity
  8
Layer 1
 62
   250
370
    25
100
AcDbVertex
100
AcDb2dVertex
 10
60.83074000215343
 20
-4.750442164611001
 30
0.0
  0
SEQEND
  5
6B
330
68
100
AcDbEntity
  8
Layer 1
370
    25
  0
POLYLINE
  5
6C
330
1F
100
AcDbEntity
  8
Layer 1
 62
   250
370
    25
100
AcDb2dPolyline
 66
     1
 10
0.0
 20
0.0
 30
0.0
  0
VERTEX
  5
6D
330
6C
100
AcDbEntity
  8
Layer 1
 62
   250
370
    25
100
AcDbVertex
100
AcDb2dVertex
 10
43.54617918833221
 20
5.311820473932462
 30
0.0
  0
VERTEX
  5
6E
330
6C
100
AcDbEntity
  8
Layer 1
 62
   250
370
    25
100
AcDbVertex
100
AcDb2dVertex
 10
45.27837319831583
 20
4.311709254564434
 30
0.0
  0
SEQEND
  5
6F
330
6C
100
AcDbEntity
  8
Layer 1
370
    25
  0
POLYLINE
  5
70
330
1F
100
AcDbEntity
  8
Layer 1
 62
   250
370
    25
100
AcDb2dPolyline
 66
     1
 10
0.0
 20
0.0
 30
0.0
  0
VERTEX
  5
71
330
70
100
AcDbEntity
  8
Layer 1
 62
   250
370
    25
100
AcDbVertex
100
AcDb2dVertex
 10
55.6345024817511
 20
-1.75028076128118
 30
0.0
  0
VERTEX
  5
72
330
70
100
AcDbEntity
  8
Layer 1
 62
   250
370
    25
100
AcDbVertex
100
AcDb2dVertex
 10
60.83056774737916
 20
-4.750442164611001
 30
0.0
  0
SEQEND
  5
73
330
70
100
AcDbEntity
  8
Layer 1
370
    25
  0
POLYLINE
  5
74
330
1F
100
AcDbEntity
  8
Layer 1
 62
   250
370
    25
100
AcDb2dPolyline
 66
     1
 10
0.0
 20
0.0
 30
0.0
  0
VERTEX
  5
75
330
74
100
AcDbEntity
  8
Layer 1
 62
   250
370
    25
100
AcDbVertex
100
AcDb2dVertex
 10
48.27819009209712
 20
9.507946774966763
 30
0.0
  0
VERTEX
  5
76
330
74
100
AcDbEntity
  8
Layer 1
 62
   250
370
    25
100
AcDbVertex
100
AcDb2dVertex
 10
46.54616833688777
 20
10.50805799433479
 30
0.0
  0
SEQEND
  5
77
330
74
100
AcDbEntity
  8
Layer 1
370
    25
  0
POLYLINE
  5
78
330
1F
100
AcDbEntity
  8
Layer 1
 62
   250
370
    25
100
AcDb2dPolyline
 66
     1
 10
0.0
 20
0.0
 30
0.0
  0
VERTEX
  5
79
330
78
100
AcDbEntity
  8
Layer 1
 62
   250
370
    25
100
AcDbVertex
100
AcDb2dVertex
 10
103.5788628213275
 20
-64.22863767925534
 30
0.0
  0
VERTEX
  5
7A
330
78
100
AcDbEntity
  8
Layer 1
 62
   250
370
    25
100
AcDbVertex
100
AcDb2dVertex
 10
65.09869654405519
 20
2.420696342710798
 30
0.0
  0
SEQEND
  5
7B
330
78
100
AcDbEntity
  8
Layer 1
370
    25
  0
POLYLINE
  5
7C
330
1F
100
AcDbEntity
  8
Layer 1
 62
   250
370
    25
100
AcDb2dPolyline
 66
     1
 10
0.0
 20
0.0
 30
0.0
  0
VERTEX
  5
7D
330
7C
100
AcDbEntity
  8
Layer 1
 62
   250
370
    25
100
AcDbVertex
100
AcDb2dVertex
 10
61.63448077886222
 20
8.642022024749217
 30
0.0
  0
VERTEX
  5
7E
330
7C
100
AcDbEntity
  8
Layer 1
 62
   250
370
    25
100
AcDbVertex
100
AcDb2dVertex
 10
54.7063937580248
 20
20.64197861897145
 30
0.0
  0
SEQEND
  5
7F
330
7C
100
AcDbEntity
  8
Layer 1
370
    25
  0
POLYLINE
  5
80
330
1F
100
AcDbEntity
  8
Layer 1
 62
   250
370
    25
100
AcDb2dPolyline
 66
     1
 10
0.0
 20
0.0
 30
0.0
  0
VERTEX
  5
81
330
80
100
AcDbEntity
  8
Layer 1
 62
   250
370
    25
100
AcDbVertex
100
AcDb2dVertex
 10
110.9782389045471
 20
-59.03240015885302
 30
0.0
  0
VERTEX
  5
82
330
80
100
AcDbEntity
  8
Layer 1
 62
   250
370
    25
100
AcDbVertex
100
AcDb2dVertex
 10
109.2460448945635
 20
-58.03228893948499
 30
0.0
  0
SEQEND
  5
83
330
80
100
AcDbEntity
  8
Layer 1
370
    25
  0
POLYLINE
  5
84
330
1F
100
AcDbEntity
  8
Layer 1
 62
   250
370
    25
100
AcDb2dPolyline
 66
     1
 10
0.0
 20
0.0
 30
0.0
  0
VERTEX
  5
85
330
84
100
AcDbEntity
  8
Layer 1
 62
   250
370
    25
100
AcDbVertex
100
AcDb2dVertex
 10
124.3707030939073
 20
-59.83631319033606
 30
0.0
  0
VERTEX
  5
86
330
84
100
AcDbEntity
  8
Layer 1
 62
   250
370
    25
100
AcDbVertex
100
AcDb2dVertex
 10
112.2463785526676
 20
-52.83622367385692
 30
0.0
  0
SEQEND
  5
87
330
84
100
AcDbEntity
  8
Layer 1
370
    25
  0
POLYLINE
  5
88
330
1F
100
AcDbEntity
  8
Layer 1
 62
   250
370
    25
100
AcDb2dPolyline
 66
     1
 10
0.0
 20
0.0
 30
0.0
  0
VERTEX
  5
89
330
88
100
AcDbEntity
  8
Layer 1
 62
   250
370
    25
100
AcDbVertex
100
AcDb2dVertex
 10
205.8506564155512
 20
-64.22863767925534
 30
0.0
  0
VERTEX
  5
8A
330
88
100
AcDbEntity
  8
Layer 1
 62
   250
370
    25
100
AcDbVertex
100
AcDb2dVertex
 10
107.9782497559916
 20
-64.22863767925534
 30
0.0
  0
SEQEND
  5
8B
330
88
100
AcDbEntity
  8
Layer 1
370
    25
  0
POLYLINE
  5
8C
330
1F
100
AcDbEntity
  8
Layer 1
 62
   250
370
    25
100
AcDb2dPolyline
 66
     1
 10
0.0
 20
0.0
 30
0.0
  0
VERTEX
  5
8D
330
8C
100
AcDbEntity
  8
Layer 1
 62
   250
370
    25
100
AcDbVertex
100
AcDb2dVertex
 10
116.9782172016582
 20
-48.64009737282262
 30
0.0
  0
VERTEX
  5
8E
330
8C
100
AcDbEntity
  8
Layer 1
 62
   250
370
    25
100
AcDbVertex
100
AcDb2dVertex
 10
127.3706922424629
 20
-54.640247924708
 30
0.0
  0
SEQEND
  5
8F
330
8C
100
AcDbEntity
  8
Layer 1
370
    25
  0
POLYLINE
  5
90
330
1F
100
AcDbEntity
  8
Layer 1
 62
   250
370
    25
100
AcDb2dPolyline
 66
     1
 10
0.0
 20
0.0
 30
0.0
  0
VERTEX
  5
91
330
90
100
AcDbEntity
  8
Layer 1
 62
   250
370
    25
100
AcDbVertex
100
AcDb2dVertex
 10
148.8181341858858
 20
10.50805799433479
 30
0.0
  0
VERTEX
  5
92
330
90
100
AcDbEntity
  8
Layer 1
 62
   250
370
    25
100
AcDbVertex
100
AcDb2dVertex
 10
145.8181450373302
 20
5.311992728706724
 30
0.0
  0
SEQEND
  5
93
330
90
100
AcDbEntity
  8
Layer 1
370
    25
  0
POLYLINE
  5
94
330
1F
100
AcDbEntity
  8
Layer 1
 62
   250
370
    25
100
AcDb2dPolyline
 66
     1
 10
0.0
 20
0.0
 30
0.0
  0
VERTEX
  5
95
330
94
100
AcDbEntity
  8
Layer 1
 62
   250
370
    25
100
AcDbVertex
100
AcDb2dVertex
 10
112.2463785526676
 20
-52.83622367385692
 30
0.0
  0
VERTEX
  5
96
330
94
100
AcDbEntity
  8
Layer 1
 62
   250
370
    25
100
AcDbVertex
100
AcDb2dVertex
 10
109.2460448945635
 20
-58.03246119425925
 30
0.0
  0
SEQEND
  5
97
330
94
100
AcDbEntity
  8
Layer 1
370
    25
  0
POLYLINE
  5
98
330
1F
100
AcDbEntity
  8
Layer 1
 62
   250
370
    25
100
AcDb2dPolyline
 66
     1
 10
0.0
 20
0.0
 30
0.0
  0
VERTEX
  5
99
330
98
100
AcDbEntity
  8
Layer 1
 62
   250
370
    25
100
AcDbVertex
100
AcDb2dVertex
 10
150.5499836863208
 20
9.507946774966763
 30
0.0
  0
VERTEX
  5
9A
330
98
100
AcDbEntity
  8
Layer 1
 62
   250
370
    25
100
AcDbVertex
100
AcDb2dVertex
 10
157.0143608548436
 20
20.70416259248021
 30
0.0
  0
SEQEND
  5
9B
330
98
100
AcDbEntity
  8
Layer 1
370
    25
  0
POLYLINE
  5
9C
330
1F
100
AcDbEntity
  8
Layer 1
 62
   250
370
    25
100
AcDb2dPolyline
 66
     1
 10
0.0
 20
0.0
 30
0.0
  0
VERTEX
  5
9D
330
9C
100
AcDbEntity
  8
Layer 1
 62
   250
370
    25
100
AcDbVertex
100
AcDb2dVertex
 10
147.5499945377653
 20
4.311881509338696
 30
0.0
  0
VERTEX
  5
9E
330
9C
100
AcDbEntity
  8
Layer 1
 62
   250
370
    25
100
AcDbVertex
100
AcDb2dVertex
 10
116.9782172016582
 20
-48.64009737282262
 30
0.0
  0
SEQEND
  5
9F
330
9C
100
AcDbEntity
  8
Layer 1
370
    25
  0
POLYLINE
  5
A0
330
1F
100
AcDbEntity
  8
Layer 1
 62
   250
370
    25
100
AcDb2dPolyline
 66
     1
 10
0.0
 20
0.0
 30
0.0
  0
VERTEX
  5
A1
330
A0
100
AcDbEntity
  8
Layer 1
 62
   250
370
    25
100
AcDbVertex
100
AcDb2dVertex
 10
110.9782389045471
 20
-59.03240015885302
 30
0.0
  0
VERTEX
  5
A2
330
A0
100
AcDbEntity
  8
Layer 1
 62
   250
370
    25
100
AcDbVertex
100
AcDb2dVertex
 10
107.9782497559916
 20
-64.22846542448109
 30
0.0
  0
SEQEND
  5
A3
330
A0
100
AcDbEntity
  8
Layer 1
370
    25
  0
POLYLINE
  5
A4
330
1F
100
AcDbEntity
  8
Layer 1
 62
   250
370
    25
100
AcDb2dPolyline
 66
     1
 10
0.0
 20
0.0
 30
0.0
  0
VERTEX
  5
A5
330
A4
100
AcDbEntity
  8
Layer 1
 62
   250
370
    25
100
AcDbVertex
100
AcDb2dVertex
 10
127.3706922424629
 20
-54.64007566993374
 30
0.0
  0
VERTEX
  5
A6
330
A4
100
AcDbEntity
  8
Layer 1
 62
   250
370
    25
100
AcDbVertex
100
AcDb2dVertex
 10
124.3707030939073
 20
-59.83631319033606
 30
0.0
  0
SEQEND
  5
A7
330
A4
100
AcDbEntity
  8
Layer 1
370
    25
  0
POLYLINE
  5
A8
330
1F
100
AcDbEntity
  8
Layer 1
 62
   250
370
    25
100
AcDb2dPolyline
 66
     1
 10
0.0
 20
0.0
 30
0.0
  0
VERTEX
  5
A9
330
A8
100
AcDbEntity
  8
Layer 1
 62
   250
370
    25
100
AcDbVertex
100
AcDb2dVertex
 10
157.9066405855233
 20
-1.75028076128118
 30
0.0
  0
VERTEX
  5
AA
330
A8
100
AcDbEntity
  8
Layer 1
 62
   250
370
    25
100
AcDbVertex
100
AcDb2dVertex
 10
163.9066188826345
 20
8.641677515200692
 30
0.0
  0
SEQEND
  5
AB
330
A8
100
AcDbEntity
  8
Layer 1
370
    25
  0
POLYLINE
  5
AC
330
1F
100
AcDbEntity
  8
Layer 1
 62
   250
370
    25
100
AcDb2dPolyline
 66
     1
 10
0.0
 20
0.0
 30
0.0
  0
VERTEX
  5
AD
330
AC
100
AcDbEntity
  8
Layer 1
 62
   250
370
    25
100
AcDbVertex
100
AcDb2dVertex
 10
167.3706623930532
 20
2.6420437276381
 30
0.0
  0
VERTEX
  5
AE
330
AC
100
AcDbEntity
  8
Layer 1
 62
   250
370
    25
100
AcDbVertex
100
AcDb2dVertex
 10
163.1025335963772
 20
-4.750442164611001
 30
0.0
  0
SEQEND
  5
AF
330
AC
100
AcDbEntity
  8
Layer 1
370
    25
  0
POLYLINE
  5
B0
330
1F
100
AcDbEntity
  8
Layer 1
 62
   250
370
    25
100
AcDb2dPolyline
 66
     1
 10
0.0
 20
0.0
 30
0.0
  0
VERTEX
  5
B1
330
B0
100
AcDbEntity
  8
Layer 1
 62
   250
370
    25
100
AcDbVertex
100
AcDb2dVertex
 10
145.8181450373302
 20
5.311820473932462
 30
0.0
  0
VERTEX
  5
B2
330
B0
100
AcDbEntity
  8
Layer 1
 62
   250
370
    25
100
AcDbVertex
100
AcDb2dVertex
 10
147.5503390473138
 20
4.311709254564434
 30
0.0
  0
SEQEND
  5
B3
330
B0
100
AcDbEntity
  8
Layer 1
370
    25
  0
POLYLINE
  5
B4
330
1F
100
AcDbEntity
  8
Layer 1
 62
   250
370
    25
100
AcDb2dPolyline
 66
     1
 10
0.0
 20
0.0
 30
0.0
  0
VERTEX
  5
B5
330
B4
100
AcDbEntity
  8
Layer 1
 62
   250
370
    25
100
AcDbVertex
100
AcDb2dVertex
 10
157.9066405855233
 20
-1.75028076128118
 30
0.0
  0
VERTEX
  5
B6
330
B4
100
AcDbEntity
  8
Layer 1
 62
   250
370
    25
100
AcDbVertex
100
AcDb2dVertex
 10
163.1025335963772
 20
-4.750442164611001
 30
0.0
  0
SEQEND
  5
B7
330
B4
100
AcDbEntity
  8
Layer 1
370
    25
  0
POLYLINE
  5
B8
330
1F
100
AcDbEntity
  8
Layer 1
 62
   250
370
    25
100
AcDb2dPolyline
 66
     1
 10
0.0
 20
0.0
 30
0.0
  0
VERTEX
  5
B9
330
B8
100
AcDbEntity
  8
Layer 1
 62
   250
370
    25
100
AcDbVertex
100
AcDb2dVertex
 10
150.5499836863208
 20
9.507946774966763
 30
0.0
  0
VERTEX
  5
BA
330
B8
100
AcDbEntity
  8
Layer 1
 62
   250
370
    25
100
AcDbVertex
100
AcDb2dVertex
 10
148.8181341858858
 20
10.50805799433479
 30
0.0
  0
SEQEND
  5
BB
330
B8
100
AcDbEntity
  8
Layer 1
370
    25
  0
POLYLINE
  5
BC
330
1F
100
AcDbEntity
  8
Layer 1
 62
   250
370
    25
100
AcDb2dPolyline
 66
     1
 10
0.0
 20
0.0
 30
0.0
  0
VERTEX
  5
BD
330
BC
100
AcDbEntity
  8
Layer 1
 62
   250
370
    25
100
AcDbVertex
100
AcDb2dVertex
 10
205.8506564155512
 20
-64.22863767925534
 30
0.0
  0
VERTEX
  5
BE
330
BC
100
AcDbEntity
  8
Layer 1
 62
   250
370
    25
100
AcDbVertex
100
AcDb2dVertex
 10
167.3706623930532
 20
2.420696342710798
 30
0.0
  0
SEQEND
  5
BF
330
BC
100
AcDbEntity
  8
Layer 1
370
    25
  0
POLYLINE
  5
C0
330
1F
100
AcDbEntity
  8
Layer 1
 62
   250
370
    25
100
AcDb2dPolyline
 66
     1
 10
0.0
 20
0.0
 30
0.0
  0
VERTEX
  5
C1
330
C0
100
AcDbEntity
  8
Layer 1
 62
   250
370
    25
100
AcDbVertex
100
AcDb2dVertex
 10
163.9066188826345
 20
8.642022024749217
 30
0.0
  0
VERTEX
  5
C2
330
C0
100
AcDbEntity
  8
Layer 1
 62
   250
370
    25
100
AcDbVertex
100
AcDb2dVertex
 10
156.9785318617971
 20
20.64197861897145
 30
0.0
  0
SEQEND
  5
C3
330
C0
100
AcDbEntity
  8
Layer 1
370
    25
  0
POLYLINE
  5
C4
330
1F
100
AcDbEntity
  8
Layer 1
 62
   250
370
    25
100
AcDb2dPolyline
 66
     1
 10
0.0
 20
0.0
 30
0.0
  0
VERTEX
  5
C5
330
C4
100
AcDbEntity
  8
Layer 1
 62
   250
370
    25
100
AcDbVertex
100
AcDb2dVertex
 10
39.00089245986783
 20
-100.3127400465364
 30
0.0
  0
VERTEX
  5
C6
330
C4
100
AcDbEntity
  8
Layer 1
 62
   250
370
    25
100
AcDbVertex
100
AcDb2dVertex
 10
39.00089245986783
 20
-79.53261309860643
 30
0.0
  0
SEQEND
  5
C7
330
C4
100
AcDbEntity
  8
Layer 1
370
    25
  0
POLYLINE
  5
C8
330
1F
100
AcDbEntity
  8
Layer 1
 62
   250
370
    25
100
AcDb2dPolyline
 66
     1
 10
0.0
 20
0.0
 30
0.0
  0
VERTEX
  5
C9
330
C8
100
AcDbEntity
  8
Layer 1
 62
   250
370
    25
100
AcDbVertex
100
AcDb2dVertex
 10
45.00087075697895
 20
-100.3127400465364
 30
0.0
  0
VERTEX
  5
CA
330
C8
100
AcDbEntity
  8
Layer 1
 62
   250
370
    25
100
AcDbVertex
100
AcDb2dVertex
 10
45.00087075697895
 20
-91.53274194760293
 30
0.0
  0
SEQEND
  5
CB
330
C8
100
AcDbEntity
  8
Layer 1
370
    25
  0
POLYLINE
  5
CC
330
1F
100
AcDbEntity
  8
Layer 1
 62
   250
370
    25
100
AcDb2dPolyline
 66
     1
 10
0.0
 20
0.0
 30
0.0
  0
VERTEX
  5
CD
330
CC
100
AcDbEntity
  8
Layer 1
 62
   250
370
    25
100
AcDbVertex
100
AcDb2dVertex
 10
50.91764999812128
 20
-91.53274194760293
 30
0.0
  0
VERTEX
  5
CE
330
CC
100
AcDbEntity
  8
Layer 1
 62
   250
370
    25
100
AcDbVertex
100
AcDb2dVertex
 10
50.91764999812128
 20
-100.3125677917621
 30
0.0
  0
SEQEND
  5
CF
330
CC
100
AcDbEntity
  8
Layer 1
370
    25
  0
POLYLINE
  5
D0
330
1F
100
AcDbEntity
  8
Layer 1
 62
   250
370
    25
100
AcDb2dPolyline
 66
     1
 10
0.0
 20
0.0
 30
0.0
  0
VERTEX
  5
D1
330
D0
100
AcDbEntity
  8
Layer 1
 62
   250
370
    25
100
AcDbVertex
100
AcDb2dVertex
 10
93.00052487909362
 20
-91.53274194760293
 30
0.0
  0
VERTEX
  5
D2
330
D0
100
AcDbEntity
  8
Layer 1
 62
   250
370
    25
100
AcDbVertex
100
AcDb2dVertex
 10
93.00052487909362
 20
-97.53272024471404
 30
0.0
  0
SEQEND
  5
D3
330
D0
100
AcDbEntity
  8
Layer 1
370
    25
  0
POLYLINE
  5
D4
330
1F
100
AcDbEntity
  8
Layer 1
 62
   250
370
    25
100
AcDb2dPolyline
 66
     1
 10
0.0
 20
0.0
 30
0.0
  0
VERTEX
  5
D5
330
D4
100
AcDbEntity
  8
Layer 1
 62
   250
370
    25
100
AcDbVertex
100
AcDb2dVertex
 10
117.0006103223124
 20
-97.53272024471404
 30
0.0
  0
VERTEX
  5
D6
330
D4
100
AcDbEntity
  8
Layer 1
 62
   250
370
    25
100
AcDbVertex
100
AcDb2dVertex
 10
117.0006103223124
 20
-91.53256969282867
 30
0.0
  0
SEQEND
  5
D7
330
D4
100
AcDbEntity
  8
Layer 1
370
    25
  0
POLYLINE
  5
D8
330
1F
100
AcDbEntity
  8
Layer 1
 62
   250
370
    25
100
AcDb2dPolyline
 66
     1
 10
0.0
 20
0.0
 30
0.0
  0
VERTEX
  5
D9
330
D8
100
AcDbEntity
  8
Layer 1
 62
   250
370
    25
100
AcDbVertex
100
AcDb2dVertex
 10
39.00089245986783
 20
-100.3127400465364
 30
0.0
  0
VERTEX
  5
DA
330
D8
100
AcDbEntity
  8
Layer 1
 62
   250
370
    25
100
AcDbVertex
100
AcDb2dVertex
 10
45.00087075697895
 20
-100.3127400465364
 30
0.0
  0
SEQEND
  5
DB
330
D8
100
AcDbEntity
  8
Layer 1
370
    25
  0
POLYLINE
  5
DC
330
1F
100
AcDbEntity
  8
Layer 1
 62
   250
370
    25
100
AcDb2dPolyline
 66
     1
 10
0.0
 20
0.0
 30
0.0
  0
VERTEX
  5
DD
330
DC
100
AcDbEntity
  8
Layer 1
 62
   250
370
    25
100
AcDbVertex
100
AcDb2dVertex
 10
156.9147975953199
 20
-100.3127400465364
 30
0.0
  0
VERTEX
  5
DE
330
DC
100
AcDbEntity
  8
Layer 1
 62
   250
370
    25
100
AcDbVertex
100
AcDb2dVertex
 10
50.91747774334702
 20
-100.3127400465364
 30
0.0
  0
SEQEND
  5
DF
330
DC
100
AcDbEntity
  8
Layer 1
370
    25
  0
POLYLINE
  5
E0
330
1F
100
AcDbEntity
  8
Layer 1
 62
   250
370
    25
100
AcDb2dPolyline
 66
     1
 10
0.0
 20
0.0
 30
0.0
  0
VERTEX
  5
E1
330
E0
100
AcDbEntity
  8
Layer 1
 62
   250
370
    25
100
AcDbVertex
100
AcDb2dVertex
 10
162.914775892431
 20
-100.3127400465364
 30
0.0
  0
VERTEX
  5
E2
330
E0
100
AcDbEntity
  8
Layer 1
 62
   250
370
    25
100
AcDbVertex
100
AcDb2dVertex
 10
168.9147541895422
 20
-100.3127400465364
 30
0.0
  0
SEQEND
  5
E3
330
E0
100
AcDbEntity
  8
Layer 1
370
    25
  0
POLYLINE
  5
E4
330
1F
100
AcDbEntity
  8
Layer 1
 62
   250
370
    25
100
AcDb2dPolyline
 66
     1
 10
0.0
 20
0.0
 30
0.0
  0
VERTEX
  5
E5
330
E4
100
AcDbEntity
  8
Layer 1
 62
   250
370
    25
100
AcDbVertex
100
AcDb2dVertex
 10
93.00052487909362
 20
-97.53272024471404
 30
0.0
  0
VERTEX
  5
E6
330
E4
100
AcDbEntity
  8
Layer 1
 62
   250
370
    25
100
AcDbVertex
100
AcDb2dVertex
 10
117.0002658127638
 20
-97.53272024471404
 30
0.0
  0
SEQEND
  5
E7
330
E4
100
AcDbEntity
  8
Layer 1
370
    25
  0
POLYLINE
  5
E8
330
1F
100
AcDbEntity
  8
Layer 1
 62
   250
370
    25
100
AcDb2dPolyline
 66
     1
 10
0.0
 20
0.0
 30
0.0
  0
VERTEX
  5
E9
330
E8
100
AcDbEntity
  8
Layer 1
 62
   250
370
    25
100
AcDbVertex
100
AcDb2dVertex
 10
93.00052487909362
 20
-91.53274194760293
 30
0.0
  0
VERTEX
  5
EA
330
E8
100
AcDbEntity
  8
Layer 1
 62
   250
370
    25
100
AcDbVertex
100
AcDb2dVertex
 10
117.0002658127638
 20
-91.53274194760293
 30
0.0
  0
SEQEND
  5
EB
330
E8
100
AcDbEntity
  8
Layer 1
370
    25
  0
POLYLINE
  5
EC
330
1F
100
AcDbEntity
  8
Layer 1
 62
   250
370
    25
100
AcDb2dPolyline
 66
     1
 10
0.0
 20
0.0
 30
0.0
  0
VERTEX
  5
ED
330
EC
100
AcDbEntity
  8
Layer 1
 62
   250
370
    25
100
AcDbVertex
100
AcDb2dVertex
 10
45.00087075697895
 20
-91.53274194760293
 30
0.0
  0
VERTEX
  5
EE
330
EC
100
AcDbEntity
  8
Layer 1
 62
   250
370
    25
100
AcDbVertex
100
AcDb2dVertex
 10
51.00084905409007
 20
-91.53274194760293
 30
0.0
  0
SEQEND
  5
EF
330
EC
100
AcDbEntity
  8
Layer 1
370
    25
  0
POLYLINE
  5
F0
330
1F
100
AcDbEntity
  8
Layer 1
 62
   250
370
    25
100
AcDb2dPolyline
 66
     1
 10
0.0
 20
0.0
 30
0.0
  0
VERTEX
  5
F1
330
F0
100
AcDbEntity
  8
Layer 1
 62
   250
370
    25
100
AcDbVertex
100
AcDb2dVertex
 10
156.9147975953199
 20
-91.53274194760293
 30
0.0
  0
VERTEX
  5
F2
330
F0
100
AcDbEntity
  8
Layer 1
 62
   250
370
    25
100
AcDbVertex
100
AcDb2dVertex
 10
162.914775892431
 20
-91.53274194760293
 30
0.0
  0
SEQEND
  5
F3
330
F0
100
AcDbEntity
  8
Layer 1
370
    25
  0
POLYLINE
  5
F4
330
1F
100
AcDbEntity
  8
Layer 1
 62
   250
370
    25
100
AcDb2dPolyline
 66
     1
 10
0.0
 20
0.0
 30
0.0
  0
VERTEX
  5
F5
330
F4
100
AcDbEntity
  8
Layer 1
 62
   250
370
    25
100
AcDbVertex
100
AcDb2dVertex
 10
168.9147541895422
 20
-79.53261309860643
 30
0.0
  0
VERTEX
  5
F6
330
F4
100
AcDbEntity
  8
Layer 1
 62
   250
370
    25
100
AcDbVertex
100
AcDb2dVertex
 10
39.00089245986783
 20
-79.53261309860643
 30
0.0
  0
SEQEND
  5
F7
330
F4
100
AcDbEntity
  8
Layer 1
370
    25
  0
POLYLINE
  5
F8
330
1F
100
AcDbEntity
  8
Layer 1
 62
   250
370
    25
100
AcDb2dPolyline
 66
     1
 10
0.0
 20
0.0
 30
0.0
  0
VERTEX
  5
F9
330
F8
100
AcDbEntity
  8
Layer 1
 62
   250
370
    25
100
AcDbVertex
100
AcDb2dVertex
 10
156.9147975953199
 20
-91.53274194760293
 30
0.0
  0
VERTEX
  5
FA
330
F8
100
AcDbEntity
  8
Layer 1
 62
   250
370
    25
100
AcDbVertex
100
AcDb2dVertex
 10
156.9147975953199
 20
-100.3125677917621
 30
0.0
  0
SEQEND
  5
FB
330
F8
100
AcDbEntity
  8
Layer 1
370
    25
  0
POLYLINE
  5
FC
330
1F
100
AcDbEntity
  8
Layer 1
 62
   250
370
    25
100
AcDb2dPolyline
 66
     1
 10
0.0
 20
0.0
 30
0.0
  0
VERTEX
  5
FD
330
FC
100
AcDbEntity
  8
Layer 1
 62
   250
370
    25
100
AcDbVertex
100
AcDb2dVertex
 10
162.914775892431
 20
-91.53274194760293
 30
0.0
  0
VERTEX
  5
FE
330
FC
100
AcDbEntity
  8
Layer 1
 62
   250
370
    25
100
AcDbVertex
100
AcDb2dVertex
 10
162.914775892431
 20
-100.3125677917621
 30
0.0
  0
SEQEND
  5
FF
330
FC
100
AcDbEntity
  8
Layer 1
370
    25
  0
POLYLINE
  5
100
330
1F
100
AcDbEntity
  8
Layer 1
 62
   250
370
    25
100
AcDb2dPolyline
 66
     1
 10
0.0
 20
0.0
 30
0.0
  0
VERTEX
  5
101
330
100
100
AcDbEntity
  8
Layer 1
 62
   250
370
    25
100
AcDbVertex
100
AcDb2dVertex
 10
168.9147541895422
 20
-79.53261309860643
 30
0.0
  0
VERTEX
  5
102
330
100
100
AcDbEntity
  8
Layer 1
 62
   250
370
    25
100
AcDbVertex
100
AcDb2dVertex
 10
168.9147541895422
 20
-100.3127400465364
 30
0.0
  0
SEQEND
  5
103
330
100
100
AcDbEntity
  8
Layer 1
370
    25
  0
POLYLINE
  5
104
330
1F
100
AcDbEntity
  8
Layer 1
 62
   250
370
    25
100
AcDb2dPolyline
 66
     1
 10
0.0
 20
0.0
 30
0.0
  0
VERTEX
  5
105
330
104
100
AcDbEntity
  8
Layer 1
 62
   250
370
    25
100
AcDbVertex
100
AcDb2dVertex
 10
39.00089245986783
 20
-114.065733478428
 30
0.0
  0
VERTEX
  5
106
330
104
100
AcDbEntity
  8
Layer 1
 62
   250
370
    25
100
AcDbVertex
100
AcDb2dVertex
 10
39.00089245986783
 20
-138.0654744120982
 30
0.0
  0
SEQEND
  5
107
330
104
100
AcDbEntity
  8
Layer 1
370
    25
  0
POLYLINE
  5
108
330
1F
100
AcDbEntity
  8
Layer 1
 62
   250
370
    25
100
AcDb2dPolyline
 66
     1
 10
0.0
 20
0.0
 30
0.0
  0
VERTEX
  5
109
330
108
100
AcDbEntity
  8
Layer 1
 62
   250
370
    25
100
AcDbVertex
100
AcDb2dVertex
 10
45.00087075697895
 20
-138.0658189216468
 30
0.0
  0
VERTEX
  5
10A
330
108
100
AcDbEntity
  8
Layer 1
 62
   250
370
    25
100
AcDbVertex
100
AcDb2dVertex
 10
45.00087075697895
 20
-126.0656900726503
 30
0.0
  0
SEQEND
  5
10B
330
108
100
AcDbEntity
  8
Layer 1
370
    25
  0
POLYLINE
  5
10C
330
1F
100
AcDbEntity
  8
Layer 1
 62
   250
370
    25
100
AcDb2dPolyline
 66
     1
 10
0.0
 20
0.0
 30
0.0
  0
VERTEX
  5
10D
330
10C
100
AcDbEntity
  8
Layer 1
 62
   250
370
    25
100
AcDbVertex
100
AcDb2dVertex
 10
50.91764999812128
 20
-126.0656900726503
 30
0.0
  0
VERTEX
  5
10E
330
10C
100
AcDbEntity
  8
Layer 1
 62
   250
370
    25
100
AcDbVertex
100
AcDb2dVertex
 10
50.91764999812128
 20
-192.4885090664612
 30
0.0
  0
SEQEND
  5
10F
330
10C
100
AcDbEntity
  8
Layer 1
370
    25
  0
POLYLINE
  5
110
330
1F
100
AcDbEntity
  8
Layer 1
 62
   250
370
    25
100
AcDb2dPolyline
 66
     1
 10
0.0
 20
0.0
 30
0.0
  0
VERTEX
  5
111
330
110
100
AcDbEntity
  8
Layer 1
 62
   250
370
    25
100
AcDbVertex
100
AcDb2dVertex
 10
92.52096758754685
 20
-192.4885090664612
 30
0.0
  0
VERTEX
  5
112
330
110
100
AcDbEntity
  8
Layer 1
 62
   250
370
    25
100
AcDbVertex
100
AcDb2dVertex
 10
92.52096758754685
 20
-200.0987249933781
 30
0.0
  0
SEQEND
  5
113
330
110
100
AcDbEntity
  8
Layer 1
370
    25
  0
POLYLINE
  5
114
330
1F
100
AcDbEntity
  8
Layer 1
 62
   250
370
    25
100
AcDb2dPolyline
 66
     1
 10
0.0
 20
0.0
 30
0.0
  0
VERTEX
  5
115
330
114
100
AcDbEntity
  8
Layer 1
 62
   250
370
    25
100
AcDbVertex
100
AcDb2dVertex
 10
116.5210530307656
 20
-192.4885090664612
 30
0.0
  0
VERTEX
  5
116
330
114
100
AcDbEntity
  8
Layer 1
 62
   250
370
    25
100
AcDbVertex
100
AcDb2dVertex
 10
116.5210530307656
 20
-200.0987249933781
 30
0.0
  0
SEQEND
  5
117
330
114
100
AcDbEntity
  8
Layer 1
370
    25
  0
POLYLINE
  5
118
330
1F
100
AcDbEntity
  8
Layer 1
 62
   250
370
    25
100
AcDb2dPolyline
 66
     1
 10
0.0
 20
0.0
 30
0.0
  0
VERTEX
  5
119
330
118
100
AcDbEntity
  8
Layer 1
 62
   250
370
    25
100
AcDbVertex
100
AcDb2dVertex
 10
92.52096758754685
 20
-200.0987249933781
 30
0.0
  0
VERTEX
  5
11A
330
118
100
AcDbEntity
  8
Layer 1
 62
   250
370
    25
100
AcDbVertex
100
AcDb2dVertex
 10
116.520708521217
 20
-200.0987249933781
 30
0.0
  0
SEQEND
  5
11B
330
118
100
AcDbEntity
  8
Layer 1
370
    25
  0
POLYLINE
  5
11C
330
1F
100
AcDbEntity
  8
Layer 1
 62
   250
370
    25
100
AcDb2dPolyline
 66
     1
 10
0.0
 20
0.0
 30
0.0
  0
VERTEX
  5
11D
330
11C
100
AcDbEntity
  8
Layer 1
 62
   250
370
    25
100
AcDbVertex
100
AcDb2dVertex
 10
50.91764999812128
 20
-192.4885090664612
 30
0.0
  0
VERTEX
  5
11E
330
11C
100
AcDbEntity
  8
Layer 1
 62
   250
370
    25
100
AcDbVertex
100
AcDb2dVertex
 10
92.52096758754685
 20
-192.4885090664612
 30
0.0
  0
SEQEND
  5
11F
330
11C
100
AcDbEntity
  8
Layer 1
370
    25
  0
POLYLINE
  5
120
330
1F
100
AcDbEntity
  8
Layer 1
 62
   250
370
    25
100
AcDb2dPolyline
 66
     1
 10
0.0
 20
0.0
 30
0.0
  0
VERTEX
  5
121
330
120
100
AcDbEntity
  8
Layer 1
 62
   250
370
    25
100
AcDbVertex
100
AcDb2dVertex
 10
116.5210530307656
 20
-192.4885090664612
 30
0.0
  0
VERTEX
  5
122
330
120
100
AcDbEntity
  8
Layer 1
 62
   250
370
    25
100
AcDbVertex
100
AcDb2dVertex
 10
156.9147975953199
 20
-192.4885090664612
 30
0.0
  0
SEQEND
  5
123
330
120
100
AcDbEntity
  8
Layer 1
370
    25
  0
POLYLINE
  5
124
330
1F
100
AcDbEntity
  8
Layer 1
 62
   250
370
    25
100
AcDb2dPolyline
 66
     1
 10
0.0
 20
0.0
 30
0.0
  0
VERTEX
  5
125
330
124
100
AcDbEntity
  8
Layer 1
 62
   250
370
    25
100
AcDbVertex
100
AcDb2dVertex
 10
39.00089245986783
 20
-138.0658189216468
 30
0.0
  0
VERTEX
  5
126
330
124
100
AcDbEntity
  8
Layer 1
 62
   250
370
    25
100
AcDbVertex
100
AcDb2dVertex
 10
45.00087075697895
 20
-138.0658189216468
 30
0.0
  0
SEQEND
  5
127
330
124
100
AcDbEntity
  8
Layer 1
370
    25
  0
POLYLINE
  5
128
330
1F
100
AcDbEntity
  8
Layer 1
 62
   250
370
    25
100
AcDb2dPolyline
 66
     1
 10
0.0
 20
0.0
 30
0.0
  0
VERTEX
  5
129
330
128
100
AcDbEntity
  8
Layer 1
 62
   250
370
    25
100
AcDbVertex
100
AcDb2dVertex
 10
162.914775892431
 20
-138.0658189216468
 30
0.0
  0
VERTEX
  5
12A
330
128
100
AcDbEntity
  8
Layer 1
 62
   250
370
    25
100
AcDbVertex
100
AcDb2dVertex
 10
168.9147541895422
 20
-138.0658189216468
 30
0.0
  0
SEQEND
  5
12B
330
128
100
AcDbEntity
  8
Layer 1
370
    25
  0
POLYLINE
  5
12C
330
1F
100
AcDbEntity
  8
Layer 1
 62
   250
370
    25
100
AcDb2dPolyline
 66
     1
 10
0.0
 20
0.0
 30
0.0
  0
VERTEX
  5
12D
330
12C
100
AcDbEntity
  8
Layer 1
 62
   250
370
    25
100
AcDbVertex
100
AcDb2dVertex
 10
51.00084905409007
 20
-126.0656900726503
 30
0.0
  0
VERTEX
  5
12E
330
12C
100
AcDbEntity
  8
Layer 1
 62
   250
370
    25
100
AcDbVertex
100
AcDb2dVertex
 10
45.00069850220469
 20
-126.0656900726503
 30
0.0
  0
SEQEND
  5
12F
330
12C
100
AcDbEntity
  8
Layer 1
370
    25
  0
POLYLINE
  5
130
330
1F
100
AcDbEntity
  8
Layer 1
 62
   250
370
    25
100
AcDb2dPolyline
 66
     1
 10
0.0
 20
0.0
 30
0.0
  0
VERTEX
  5
131
330
130
100
AcDbEntity
  8
Layer 1
 62
   250
370
    25
100
AcDbVertex
100
AcDb2dVertex
 10
162.914775892431
 20
-126.0656900726503
 30
0.0
  0
VERTEX
  5
132
330
130
100
AcDbEntity
  8
Layer 1
 62
   250
370
    25
100
AcDbVertex
100
AcDb2dVertex
 10
156.9147975953199
 20
-126.0656900726503
 30
0.0
  0
SEQEND
  5
133
330
130
100
AcDbEntity
  8
Layer 1
370
    25
  0
POLYLINE
  5
134
330
1F
100
AcDbEntity
  8
Layer 1
 62
   250
370
    25
100
AcDb2dPolyline
 66
     1
 10
0.0
 20
0.0
 30
0.0
  0
VERTEX
  5
135
330
134
100
AcDbEntity
  8
Layer 1
 62
   250
370
    25
100
AcDbVertex
100
AcDb2dVertex
 10
168.9147541895422
 20
-114.065733478428
 30
0.0
  0
VERTEX
  5
136
330
134
100
AcDbEntity
  8
Layer 1
 62
   250
370
    25
100
AcDbVertex
100
AcDb2dVertex
 10
39.00089245986783
 20
-114.065733478428
 30
0.0
  0
SEQEND
  5
137
330
134
100
AcDbEntity
  8
Layer 1
370
    25
  0
POLYLINE
  5
138
330
1F
100
AcDbEntity
  8
Layer 1
 62
   250
370
    25
100
AcDb2dPolyline
 66
     1
 10
0.0
 20
0.0
 30
0.0
  0
VERTEX
  5
139
330
138
100
AcDbEntity
  8
Layer 1
 62
   250
370
    25
100
AcDbVertex
100
AcDb2dVertex
 10
156.9147975953199
 20
-126.0656900726503
 30
0.0
  0
VERTEX
  5
13A
330
138
100
AcDbEntity
  8
Layer 1
 62
   250
370
    25
100
AcDbVertex
100
AcDb2dVertex
 10
156.9147975953199
 20
-192.4885090664612
 30
0.0
  0
SEQEND
  5
13B
330
138
100
AcDbEntity
  8
Layer 1
370
    25
  0
POLYLINE
  5
13C
330
1F
100
AcDbEntity
  8
Layer 1
 62
   250
370
    25
100
AcDb2dPolyline
 66
     1
 10
0.0
 20
0.0
 30
0.0
  0
VERTEX
  5
13D
330
13C
100
AcDbEntity
  8
Layer 1
 62
   250
370
    25
100
AcDbVertex
100
AcDb2dVertex
 10
162.914775892431
 20
-138.0658189216468
 30
0.0
  0
VERTEX
  5
13E
330
13C
100
AcDbEntity
  8
Layer 1
 62
   250
370
    25
100
AcDbVertex
100
AcDb2dVertex
 10
162.914775892431
 20
-126.0656900726503
 30
0.0
  0
SEQEND
  5
13F
330
13C
100
AcDbEntity
  8
Layer 1
370
    25
  0
POLYLINE
  5
140
330
1F
100
AcDbEntity
  8
Layer 1
 62
   250
370
    25
100
AcDb2dPolyline
 66
     1
 10
0.0
 20
0.0
 30
0.0
  0
VERTEX
  5
141
330
140
100
AcDbEntity
  8
Layer 1
 62
   250
370
    25
100
AcDbVertex
100
AcDb2dVertex
 10
168.9147541895422
 20
-138.0658189216468
 30
0.0
  0
VERTEX
  5
142
330
140
100
AcDbEntity
  8
Layer 1
 62
   250
370
    25
100
AcDbVertex
100
AcDb2dVertex
 10
168.9147541895422
 20
-114.0659057332023
 30
0.0
  0
SEQEND
  5
143
330
140
100
AcDbEntity
  8
Layer 1
370
    25
  0
POLYLINE
  5
144
330
1F
100
AcDbEntity
  8
Layer 1
 62
   250
370
    25
100
AcDb2dPolyline
 66
     1
 10
0.0
 20
0.0
 30
0.0
  0
VERTEX
  5
145
330
144
100
AcDbEntity
  8
Layer 1
 62
   250
370
    25
100
AcDbVertex
100
AcDb2dVertex
 10
19.18315293574241
 20
-308.8731363160109
 30
0.0
  0
VERTEX
  5
146
330
144
100
AcDbEntity
  8
Layer 1
 62
   250
370
    25
100
AcDbVertex
100
AcDb2dVertex
 10
97.6059285237756
 20
-308.8731363160109
 30
0.0
  0
SEQEND
  5
147
330
144
100
AcDbEntity
  8
Layer 1
370
    25
  0
POLYLINE
  5
148
330
1F
100
AcDbEntity
  8
Layer 1
 62
   250
370
    25
100
AcDb2dPolyline
 66
     1
 10
0.0
 20
0.0
 30
0.0
  0
VERTEX
  5
149
330
148
100
AcDbEntity
  8
Layer 1
 62
   250
370
    25
100
AcDbVertex
100
AcDb2dVertex
 10
19.18315293574241
 20
-308.8731363160109
 30
0.0
  0
VERTEX
  5
14A
330
148
100
AcDbEntity
  8
Layer 1
 62
   250
370
    25
100
AcDbVertex
100
AcDb2dVertex
 10
19.18315293574241
 20
-204.0857339984578
 30
0.0
  0
SEQEND
  5
14B
330
148
100
AcDbEntity
  8
Layer 1
370
    25
  0
POLYLINE
  5
14C
330
1F
100
AcDbEntity
  8
Layer 1
 62
   250
370
    25
100
AcDb2dPolyline
 66
     1
 10
0.0
 20
0.0
 30
0.0
  0
VERTEX
  5
14D
330
14C
100
AcDbEntity
  8
Layer 1
 62
   250
370
    25
100
AcDbVertex
100
AcDb2dVertex
 10
82.40926782879005
 20
-264.9901990439955
 30
0.0
  0
VERTEX
  5
14E
330
14C
100
AcDbEntity
  8
Layer 1
 62
   250
370
    25
100
AcDbVertex
100
AcDb2dVertex
 10
29.12294242978524
 20
-264.9901990439955
 30
0.0
  0
SEQEND
  5
14F
330
14C
100
AcDbEntity
  8
Layer 1
370
    25
  0
POLYLINE
  5
150
330
1F
100
AcDbEntity
  8
Layer 1
 62
   250
370
    25
100
AcDb2dPolyline
 66
     1
 10
0.0
 20
0.0
 30
0.0
  0
VERTEX
  5
151
330
150
100
AcDbEntity
  8
Layer 1
 62
   250
370
    25
100
AcDbVertex
100
AcDb2dVertex
 10
29.12294242978524
 20
-248.884033140904
 30
0.0
  0
VERTEX
  5
152
330
150
100
AcDbEntity
  8
Layer 1
 62
   250
370
    25
100
AcDbVertex
100
AcDb2dVertex
 10
82.40926782879005
 20
-248.884033140904
 30
0.0
  0
SEQEND
  5
153
330
150
100
AcDbEntity
  8
Layer 1
370
    25
  0
POLYLINE
  5
154
330
1F
100
AcDbEntity
  8
Layer 1
 62
   250
370
    25
100
AcDb2dPolyline
 66
     1
 10
0.0
 20
0.0
 30
0.0
  0
VERTEX
  5
155
330
154
100
AcDbEntity
  8
Layer 1
 62
   250
370
    25
100
AcDbVertex
100
AcDb2dVertex
 10
82.52846813257969
 20
-248.884033140904
 30
0.0
  0
VERTEX
  5
156
330
154
100
AcDbEntity
  8
Layer 1
 62
   250
370
    25
100
AcDbVertex
100
AcDb2dVertex
 10
82.52846813257969
 20
-264.9901990439955
 30
0.0
  0
SEQEND
  5
157
330
154
100
AcDbEntity
  8
Layer 1
370
    25
  0
POLYLINE
  5
158
330
1F
100
AcDbEntity
  8
Layer 1
 62
   250
370
    25
100
AcDb2dPolyline
 66
     1
 10
0.0
 20
0.0
 30
0.0
  0
VERTEX
  5
159
330
158
100
AcDbEntity
  8
Layer 1
 62
   250
370
    25
100
AcDbVertex
100
AcDb2dVertex
 10
97.6059285237756
 20
-308.8731363160109
 30
0.0
  0
VERTEX
  5
15A
330
158
100
AcDbEntity
  8
Layer 1
 62
   250
370
    25
100
AcDbVertex
100
AcDb2dVertex
 10
97.6059285237756
 20
-204.0857339984578
 30
0.0
  0
SEQEND
  5
15B
330
158
100
AcDbEntity
  8
Layer 1
370
    25
  0
POLYLINE
  5
15C
330
1F
100
AcDbEntity
  8
Layer 1
 62
   250
370
    25
100
AcDb2dPolyline
 66
     1
 10
0.0
 20
0.0
 30
0.0
  0
VERTEX
  5
15D
330
15C
100
AcDbEntity
  8
Layer 1
 62
   250
370
    25
100
AcDbVertex
100
AcDb2dVertex
 10
97.6059285237756
 20
-204.0857339984578
 30
0.0
  0
VERTEX
  5
15E
330
15C
100
AcDbEntity
  8
Layer 1
 62
   250
370
    25
100
AcDbVertex
100
AcDb2dVertex
 10
19.18315293574241
 20
-204.0857339984578
 30
0.0
  0
SEQEND
  5
15F
330
15C
100
AcDbEntity
  8
Layer 1
370
    25
  0
POLYLINE
  5
160
330
1F
100
AcDbEntity
  8
Layer 1
 62
   250
370
    25
100
AcDb2dPolyline
 66
     1
 10
0.0
 20
0.0
 30
0.0
  0
VERTEX
  5
161
330
160
100
AcDbEntity
  8
Layer 1
 62
   250
370
    25
100
AcDbVertex
100
AcDb2dVertex
 10
29.12294242978524
 20
-248.884033140904
 30
0.0
  0
VERTEX
  5
162
330
160
100
AcDbEntity
  8
Layer 1
 62
   250
370
    25
100
AcDbVertex
100
AcDb2dVertex
 10
29.12294242978524
 20
-264.9901990439955
 30
0.0
  0
SEQEND
  5
163
330
160
100
AcDbEntity
  8
Layer 1
370
    25
  0
POLYLINE
  5
164
330
1F
100
AcDbEntity
  8
Layer 1
 62
   250
370
    25
100
AcDb2dPolyline
 66
     1
 10
0.0
 20
0.0
 30
0.0
  0
VERTEX
  5
165
330
164
100
AcDbEntity
  8
Layer 1
 62
   250
370
    25
100
AcDbVertex
100
AcDb2dVertex
 10
120.7033989498589
 20
-308.4156276355697
 30
0.0
  0
VERTEX
  5
166
330
164
100
AcDbEntity
  8
Layer 1
 62
   250
370
    25
100
AcDbVertex
100
AcDb2dVertex
 10
199.1261745378921
 20
-308.4156276355697
 30
0.0
  0
SEQEND
  5
167
330
164
100
AcDbEntity
  8
Layer 1
370
    25
  0
POLYLINE
  5
168
330
1F
100
AcDbEntity
  8
Layer 1
 62
   250
370
    25
100
AcDb2dPolyline
 66
     1
 10
0.0
 20
0.0
 30
0.0
  0
VERTEX
  5
169
330
168
100
AcDbEntity
  8
Layer 1
 62
   250
370
    25
100
AcDbVertex
100
AcDb2dVertex
 10
120.7033989498589
 20
-308.4156276355697
 30
0.0
  0
VERTEX
  5
16A
330
168
100
AcDbEntity
  8
Layer 1
 62
   250
370
    25
100
AcDbVertex
100
AcDb2dVertex
 10
120.7033989498589
 20
-203.6282253180166
 30
0.0
  0
SEQEND
  5
16B
330
168
100
AcDbEntity
  8
Layer 1
370
    25
  0
POLYLINE
  5
16C
330
1F
100
AcDbEntity
  8
Layer 1
 62
   250
370
    25
100
AcDb2dPolyline
 66
     1
 10
0.0
 20
0.0
 30
0.0
  0
VERTEX
  5
16D
330
16C
100
AcDbEntity
  8
Layer 1
 62
   250
370
    25
100
AcDbVertex
100
AcDb2dVertex
 10
183.9295138429065
 20
-264.5326903635544
 30
0.0
  0
VERTEX
  5
16E
330
16C
100
AcDbEntity
  8
Layer 1
 62
   250
370
    25
100
AcDbVertex
100
AcDb2dVertex
 10
130.6431884439017
 20
-264.5326903635544
 30
0.0
  0
SEQEND
  5
16F
330
16C
100
AcDbEntity
  8
Layer 1
370
    25
  0
POLYLINE
  5
170
330
1F
100
AcDbEntity
  8
Layer 1
 62
   250
370
    25
100
AcDb2dPolyline
 66
     1
 10
0.0
 20
0.0
 30
0.0
  0
VERTEX
  5
171
330
170
100
AcDbEntity
  8
Layer 1
 62
   250
370
    25
100
AcDbVertex
100
AcDb2dVertex
 10
130.6431884439017
 20
-248.4265244604628
 30
0.0
  0
VERTEX
  5
172
330
170
100
AcDbEntity
  8
Layer 1
 62
   250
370
    25
100
AcDbVertex
100
AcDb2dVertex
 10
183.9295138429065
 20
-248.4265244604628
 30
0.0
  0
SEQEND
  5
173
330
170
100
AcDbEntity
  8
Layer 1
370
    25
  0
POLYLINE
  5
174
330
1F
100
AcDbEntity
  8
Layer 1
 62
   250
370
    25
100
AcDb2dPolyline
 66
     1
 10
0.0
 20
0.0
 30
0.0
  0
VERTEX
  5
175
330
174
100
AcDbEntity
  8
Layer 1
 62
   250
370
    25
100
AcDbVertex
100
AcDb2dVertex
 10
184.0487141466962
 20
-248.4265244604628
 30
0.0
  0
VERTEX
  5
176
330
174
100
AcDbEntity
  8
Layer 1
 62
   250
370
    25
100
AcDbVertex
100
AcDb2dVertex
 10
184.0487141466962
 20
-264.5326903635544
 30
0.0
  0
SEQEND
  5
177
330
174
100
AcDbEntity
  8
Layer 1
370
    25
  0
POLYLINE
  5
178
330
1F
100
AcDbEntity
  8
Layer 1
 62
   250
370
    25
100
AcDb2dPolyline
 66
     1
 10
0.0
 20
0.0
 30
0.0
  0
VERTEX
  5
179
330
178
100
AcDbEntity
  8
Layer 1
 62
   250
370
    25
100
AcDbVertex
100
AcDb2dVertex
 10
199.1261745378921
 20
-308.4156276355697
 30
0.0
  0
VERTEX
  5
17A
330
178
100
AcDbEntity
  8
Layer 1
 62
   250
370
    25
100
AcDbVertex
100
AcDb2dVertex
 10
199.1261745378921
 20
-203.627880808468
 30
0.0
  0
SEQEND
  5
17B
330
178
100
AcDbEntity
  8
Layer 1
370
    25
  0
POLYLINE
  5
17C
330
1F
100
AcDbEntity
  8
Layer 1
 62
   250
370
    25
100
AcDb2dPolyline
 66
     1
 10
0.0
 20
0.0
 30
0.0
  0
VERTEX
  5
17D
330
17C
100
AcDbEntity
  8
Layer 1
 62
   250
370
    25
100
AcDbVertex
100
AcDb2dVertex
 10
199.1261745378921
 20
-203.6282253180166
 30
0.0
  0
VERTEX
  5
17E
330
17C
100
AcDbEntity
  8
Layer 1
 62
   250
370
    25
100
AcDbVertex
100
AcDb2dVertex
 10
120.7033989498589
 20
-203.6282253180166
 30
0.0
  0
SEQEND
  5
17F
330
17C
100
AcDbEntity
  8
Layer 1
370
    25
  0
POLYLINE
  5
180
330
1F
100
AcDbEntity
  8
Layer 1
 62
   250
370
    25
100
AcDb2dPolyline
 66
     1
 10
0.0
 20
0.0
 30
0.0
  0
VERTEX
  5
181
330
180
100
AcDbEntity
  8
Layer 1
 62
   250
370
    25
100
AcDbVertex
100
AcDb2dVertex
 10
130.6431884439017
 20
-248.4265244604628
 30
0.0
  0
VERTEX
  5
182
330
180
100
AcDbEntity
  8
Layer 1
 62
   250
370
    25
100
AcDbVertex
100
AcDb2dVertex
 10
130.6431884439017
 20
-264.5326903635544
 30
0.0
  0
SEQEND
  5
183
330
180
100
AcDbEntity
  8
Layer 1
370
    25
  0
POLYLINE
  5
184
330
1F
100
AcDbEntity
  8
Layer 1
 62
   250
370
    25
100
AcDb2dPolyline
 66
     1
 10
0.0
 20
0.0
 30
0.0
  0
VERTEX
  5
185
330
184
100
AcDbEntity
  8
Layer 1
 62
   250
370
    25
100
AcDbVertex
100
AcDb2dVertex
 10
277.9623615841552
 20
-62.54002412716014
 30
0.0
  0
VERTEX
  5
186
330
184
100
AcDbEntity
  8
Layer 1
 62
   250
370
    25
100
AcDbVertex
100
AcDb2dVertex
 10
265.9620604803845
 20
-62.5415744201285
 30
0.0
  0
SEQEND
  5
187
330
184
100
AcDbEntity
  8
Layer 1
370
    25
  0
POLYLINE
  5
188
330
1F
100
AcDbEntity
  8
Layer 1
 62
   250
370
    25
100
AcDb2dPolyline
 66
     1
 10
0.0
 20
0.0
 30
0.0
  0
VERTEX
  5
189
330
188
100
AcDbEntity
  8
Layer 1
 62
   250
370
    25
100
AcDbVertex
100
AcDb2dVertex
 10
265.962404989933
 20
-56.53952906572623
 30
0.0
  0
VERTEX
  5
18A
330
188
100
AcDbEntity
  8
Layer 1
 62
   250
370
    25
100
AcDbVertex
100
AcDb2dVertex
 10
277.9623615841552
 20
-56.54021808482328
 30
0.0
  0
SEQEND
  5
18B
330
188
100
AcDbEntity
  8
Layer 1
370
    25
  0
POLYLINE
  5
18C
330
1F
100
AcDbEntity
  8
Layer 1
 62
   250
370
    25
100
AcDb2dPolyline
 66
     1
 10
0.0
 20
0.0
 30
0.0
  0
VERTEX
  5
18D
330
18C
100
AcDbEntity
  8
Layer 1
 62
   250
370
    25
100
AcDbVertex
100
AcDb2dVertex
 10
265.9665391045153
 20
23.53172471199901
 30
0.0
  0
VERTEX
  5
18E
330
18C
100
AcDbEntity
  8
Layer 1
 62
   250
370
    25
100
AcDbVertex
100
AcDb2dVertex
 10
265.962404989933
 20
-56.54039033959754
 30
0.0
  0
SEQEND
  5
18F
330
18C
100
AcDbEntity
  8
Layer 1
370
    25
  0
POLYLINE
  5
190
330
1F
100
AcDbEntity
  8
Layer 1
 62
   250
370
    25
100
AcDb2dPolyline
 66
     1
 10
0.0
 20
0.0
 30
0.0
  0
VERTEX
  5
191
330
190
100
AcDbEntity
  8
Layer 1
 62
   250
370
    25
100
AcDbVertex
100
AcDb2dVertex
 10
265.9620604803845
 20
-62.5415744201285
 30
0.0
  0
VERTEX
  5
192
330
190
100
AcDbEntity
  8
Layer 1
 62
   250
370
    25
100
AcDbVertex
100
AcDb2dVertex
 10
265.9613714612875
 20
-74.53911944751106
 30
0.0
  0
SEQEND
  5
193
330
190
100
AcDbEntity
  8
Layer 1
370
    25
  0
POLYLINE
  5
194
330
1F
100
AcDbEntity
  8
Layer 1
 62
   250
370
    25
100
AcDb2dPolyline
 66
     1
 10
0.0
 20
0.0
 30
0.0
  0
VERTEX
  5
195
330
194
100
AcDbEntity
  8
Layer 1
 62
   250
370
    25
100
AcDbVertex
100
AcDb2dVertex
 10
277.9623615841552
 20
-56.54004583004902
 30
0.0
  0
VERTEX
  5
196
330
194
100
AcDbEntity
  8
Layer 1
 62
   250
370
    25
100
AcDbVertex
100
AcDb2dVertex
 10
277.9623615841552
 20
-62.54002412716014
 30
0.0
  0
SEQEND
  5
197
330
194
100
AcDbEntity
  8
Layer 1
370
    25
  0
POLYLINE
  5
198
330
1F
100
AcDbEntity
  8
Layer 1
 62
   250
370
    25
100
AcDb2dPolyline
 66
     1
 10
0.0
 20
0.0
 30
0.0
  0
VERTEX
  5
199
330
198
100
AcDbEntity
  8
Layer 1
 62
   250
370
    25
100
AcDbVertex
100
AcDb2dVertex
 10
277.469368420216
 20
11.53245713687383
 30
0.0
  0
VERTEX
  5
19A
330
198
100
AcDbEntity
  8
Layer 1
 62
   250
370
    25
100
AcDbVertex
100
AcDb2dVertex
 10
277.4704019488616
 20
23.53241373109606
 30
0.0
  0
SEQEND
  5
19B
330
198
100
AcDbEntity
  8
Layer 1
370
    25
  0
POLYLINE
  5
19C
330
1F
100
AcDbEntity
  8
Layer 1
 62
   250
370
    25
100
AcDb2dPolyline
 66
     1
 10
0.0
 20
0.0
 30
0.0
  0
VERTEX
  5
19D
330
19C
100
AcDbEntity
  8
Layer 1
 62
   250
370
    25
100
AcDbVertex
100
AcDb2dVertex
 10
283.4696912268756
 20
23.53241373109606
 30
0.0
  0
VERTEX
  5
19E
330
19C
100
AcDbEntity
  8
Layer 1
 62
   250
370
    25
100
AcDbVertex
100
AcDb2dVertex
 10
283.4693467173271
 20
11.53194037255104
 30
0.0
  0
SEQEND
  5
19F
330
19C
100
AcDbEntity
  8
Layer 1
370
    25
  0
POLYLINE
  5
1A0
330
1F
100
AcDbEntity
  8
Layer 1
 62
   250
370
    25
100
AcDb2dPolyline
 66
     1
 10
0.0
 20
0.0
 30
0.0
  0
VERTEX
  5
1A1
330
1A0
100
AcDbEntity
  8
Layer 1
 62
   250
370
    25
100
AcDbVertex
100
AcDb2dVertex
 10
277.469368420216
 20
11.53245713687383
 30
0.0
  0
VERTEX
  5
1A2
330
1A0
100
AcDbEntity
  8
Layer 1
 62
   250
370
    25
100
AcDbVertex
100
AcDb2dVertex
 10
283.4693467173271
 20
11.53211262732531
 30
0.0
  0
SEQEND
  5
1A3
330
1A0
100
AcDbEntity
  8
Layer 1
370
    25
  0
POLYLINE
  5
1A4
330
1F
100
AcDbEntity
  8
Layer 1
 62
   250
370
    25
100
AcDb2dPolyline
 66
     1
 10
0.0
 20
0.0
 30
0.0
  0
VERTEX
  5
1A5
330
1A4
100
AcDbEntity
  8
Layer 1
 62
   250
370
    25
100
AcDbVertex
100
AcDb2dVertex
 10
419.1031004811617
 20
-106.4231336539498
 30
0.0
  0
VERTEX
  5
1A6
330
1A4
100
AcDbEntity
  8
Layer 1
 62
   250
370
    25
100
AcDbVertex
100
AcDb2dVertex
 10
398.3229735332318
 20
-106.4231336539498
 30
0.0
  0
SEQEND
  5
1A7
330
1A4
100
AcDbEntity
  8
Layer 1
370
    25
  0
POLYLINE
  5
1A8
330
1F
100
AcDbEntity
  8
Layer 1
 62
   250
370
    25
100
AcDb2dPolyline
 66
     1
 10
0.0
 20
0.0
 30
0.0
  0
VERTEX
  5
1A9
330
1A8
100
AcDbEntity
  8
Layer 1
 62
   250
370
    25
100
AcDbVertex
100
AcDb2dVertex
 10
394.0779268763069
 20
-106.3816202533525
 30
0.0
  0
VERTEX
  5
1AA
330
1A8
100
AcDbEntity
  8
Layer 1
 62
   250
370
    25
100
AcDbVertex
100
AcDb2dVertex
 10
373.2977999283769
 20
-106.3816202533525
 30
0.0
  0
SEQEND
  5
1AB
330
1A8
100
AcDbEntity
  8
Layer 1
370
    25
  0
POLYLINE
  5
1AC
330
1F
100
AcDbEntity
  8
Layer 1
 62
   250
370
    25
100
AcDb2dPolyline
 66
     1
 10
0.0
 20
0.0
 30
0.0
  0
VERTEX
  5
1AD
330
1AC
100
AcDbEntity
  8
Layer 1
 62
   250
370
    25
100
AcDbVertex
100
AcDb2dVertex
 10
419.1031004811617
 20
-100.4231553568387
 30
0.0
  0
VERTEX
  5
1AE
330
1AC
100
AcDbEntity
  8
Layer 1
 62
   250
370
    25
100
AcDbVertex
100
AcDb2dVertex
 10
410.3232746370026
 20
-100.4231553568387
 30
0.0
  0
SEQEND
  5
1AF
330
1AC
100
AcDbEntity
  8
Layer 1
370
    25
  0
POLYLINE
  5
1B0
330
1F
100
AcDbEntity
  8
Layer 1
 62
   250
370
    25
100
AcDb2dPolyline
 66
     1
 10
0.0
 20
0.0
 30
0.0
  0
VERTEX
  5
1B1
330
1B0
100
AcDbEntity
  8
Layer 1
 62
   250
370
    25
100
AcDbVertex
100
AcDb2dVertex
 10
410.3232746370026
 20
-94.5060316061478
 30
0.0
  0
VERTEX
  5
1B2
330
1B0
100
AcDbEntity
  8
Layer 1
 62
   250
370
    25
100
AcDbVertex
100
AcDb2dVertex
 10
419.1027559716132
 20
-94.5060316061478
 30
0.0
  0
SEQEND
  5
1B3
330
1B0
100
AcDbEntity
  8
Layer 1
370
    25
  0
POLYLINE
  5
1B4
330
1F
100
AcDbEntity
  8
Layer 1
 62
   250
370
    25
100
AcDb2dPolyline
 66
     1
 10
0.0
 20
0.0
 30
0.0
  0
VERTEX
  5
1B5
330
1B4
100
AcDbEntity
  8
Layer 1
 62
   250
370
    25
100
AcDbVertex
100
AcDb2dVertex
 10
410.3232746370026
 20
-52.42350123472399
 30
0.0
  0
VERTEX
  5
1B6
330
1B4
100
AcDbEntity
  8
Layer 1
 62
   250
370
    25
100
AcDbVertex
100
AcDb2dVertex
 10
416.3232529341137
 20
-52.42350123472399
 30
0.0
  0
SEQEND
  5
1B7
330
1B4
100
AcDbEntity
  8
Layer 1
370
    25
  0
POLYLINE
  5
1B8
330
1F
100
AcDbEntity
  8
Layer 1
 62
   250
370
    25
100
AcDb2dPolyline
 66
     1
 10
0.0
 20
0.0
 30
0.0
  0
VERTEX
  5
1B9
330
1B8
100
AcDbEntity
  8
Layer 1
 62
   250
370
    25
100
AcDbVertex
100
AcDb2dVertex
 10
416.3232529341137
 20
-28.423243536731
 30
0.0
  0
VERTEX
  5
1BA
330
1B8
100
AcDbEntity
  8
Layer 1
 62
   250
370
    25
100
AcDbVertex
100
AcDb2dVertex
 10
410.322930127454
 20
-28.423243536731
 30
0.0
  0
SEQEND
  5
1BB
330
1B8
100
AcDbEntity
  8
Layer 1
370
    25
  0
POLYLINE
  5
1BC
330
1F
100
AcDbEntity
  8
Layer 1
 62
   250
370
    25
100
AcDb2dPolyline
 66
     1
 10
0.0
 20
0.0
 30
0.0
  0
VERTEX
  5
1BD
330
1BC
100
AcDbEntity
  8
Layer 1
 62
   250
370
    25
100
AcDbVertex
100
AcDb2dVertex
 10
419.1031004811617
 20
-106.4231336539498
 30
0.0
  0
VERTEX
  5
1BE
330
1BC
100
AcDbEntity
  8
Layer 1
 62
   250
370
    25
100
AcDbVertex
100
AcDb2dVertex
 10
419.1031004811617
 20
-100.4231553568387
 30
0.0
  0
SEQEND
  5
1BF
330
1BC
100
AcDbEntity
  8
Layer 1
370
    25
  0
POLYLINE
  5
1C0
330
1F
100
AcDbEntity
  8
Layer 1
 62
   250
370
    25
100
AcDb2dPolyline
 66
     1
 10
0.0
 20
0.0
 30
0.0
  0
VERTEX
  5
1C1
330
1C0
100
AcDbEntity
  8
Layer 1
 62
   250
370
    25
100
AcDbVertex
100
AcDb2dVertex
 10
419.1031004811617
 20
11.49094373627657
 30
0.0
  0
VERTEX
  5
1C2
330
1C0
100
AcDbEntity
  8
Layer 1
 62
   250
370
    25
100
AcDbVertex
100
AcDb2dVertex
 10
419.1031004811617
 20
-94.50637611569633
 30
0.0
  0
SEQEND
  5
1C3
330
1C0
100
AcDbEntity
  8
Layer 1
370
    25
  0
POLYLINE
  5
1C4
330
1F
100
AcDbEntity
  8
Layer 1
 62
   250
370
    25
100
AcDb2dPolyline
 66
     1
 10
0.0
 20
0.0
 30
0.0
  0
VERTEX
  5
1C5
330
1C4
100
AcDbEntity
  8
Layer 1
 62
   250
370
    25
100
AcDbVertex
100
AcDb2dVertex
 10
419.1031004811617
 20
17.49092203338769
 30
0.0
  0
VERTEX
  5
1C6
330
1C4
100
AcDbEntity
  8
Layer 1
 62
   250
370
    25
100
AcDbVertex
100
AcDb2dVertex
 10
419.1031004811617
 20
23.4909003304988
 30
0.0
  0
SEQEND
  5
1C7
330
1C4
100
AcDbEntity
  8
Layer 1
370
    25
  0
POLYLINE
  5
1C8
330
1F
100
AcDbEntity
  8
Layer 1
 62
   250
370
    25
100
AcDb2dPolyline
 66
     1
 10
0.0
 20
0.0
 30
0.0
  0
VERTEX
  5
1C9
330
1C8
100
AcDbEntity
  8
Layer 1
 62
   250
370
    25
100
AcDbVertex
100
AcDb2dVertex
 10
416.3232529341137
 20
-52.42350123472399
 30
0.0
  0
VERTEX
  5
1CA
330
1C8
100
AcDbEntity
  8
Layer 1
 62
   250
370
    25
100
AcDbVertex
100
AcDb2dVertex
 10
416.3232529341137
 20
-28.42358804627952
 30
0.0
  0
SEQEND
  5
1CB
330
1C8
100
AcDbEntity
  8
Layer 1
370
    25
  0
POLYLINE
  5
1CC
330
1F
100
AcDbEntity
  8
Layer 1
 62
   250
370
    25
100
AcDb2dPolyline
 66
     1
 10
0.0
 20
0.0
 30
0.0
  0
VERTEX
  5
1CD
330
1CC
100
AcDbEntity
  8
Layer 1
 62
   250
370
    25
100
AcDbVertex
100
AcDb2dVertex
 10
410.3232746370026
 20
-52.42350123472399
 30
0.0
  0
VERTEX
  5
1CE
330
1CC
100
AcDbEntity
  8
Layer 1
 62
   250
370
    25
100
AcDbVertex
100
AcDb2dVertex
 10
410.3232746370026
 20
-28.42358804627952
 30
0.0
  0
SEQEND
  5
1CF
330
1CC
100
AcDbEntity
  8
Layer 1
370
    25
  0
POLYLINE
  5
1D0
330
1F
100
AcDbEntity
  8
Layer 1
 62
   250
370
    25
100
AcDb2dPolyline
 66
     1
 10
0.0
 20
0.0
 30
0.0
  0
VERTEX
  5
1D1
330
1D0
100
AcDbEntity
  8
Layer 1
 62
   250
370
    25
100
AcDbVertex
100
AcDb2dVertex
 10
410.3232746370026
 20
-100.4231553568387
 30
0.0
  0
VERTEX
  5
1D2
330
1D0
100
AcDbEntity
  8
Layer 1
 62
   250
370
    25
100
AcDbVertex
100
AcDb2dVertex
 10
410.3232746370026
 20
-94.42300480495328
 30
0.0
  0
SEQEND
  5
1D3
330
1D0
100
AcDbEntity
  8
Layer 1
370
    25
  0
POLYLINE
  5
1D4
330
1F
100
AcDbEntity
  8
Layer 1
 62
   250
370
    25
100
AcDb2dPolyline
 66
     1
 10
0.0
 20
0.0
 30
0.0
  0
VERTEX
  5
1D5
330
1D4
100
AcDbEntity
  8
Layer 1
 62
   250
370
    25
100
AcDbVertex
100
AcDb2dVertex
 10
410.3232746370026
 20
11.49094373627657
 30
0.0
  0
VERTEX
  5
1D6
330
1D4
100
AcDbEntity
  8
Layer 1
 62
   250
370
    25
100
AcDbVertex
100
AcDb2dVertex
 10
410.3232746370026
 20
17.49092203338769
 30
0.0
  0
SEQEND
  5
1D7
330
1D4
100
AcDbEntity
  8
Layer 1
370
    25
  0
POLYLINE
  5
1D8
330
1F
100
AcDbEntity
  8
Layer 1
 62
   250
370
    25
100
AcDb2dPolyline
 66
     1
 10
0.0
 20
0.0
 30
0.0
  0
VERTEX
  5
1D9
330
1D8
100
AcDbEntity
  8
Layer 1
 62
   250
370
    25
100
AcDbVertex
100
AcDb2dVertex
 10
398.3229735332318
 20
23.4909003304988
 30
0.0
  0
VERTEX
  5
1DA
330
1D8
100
AcDbEntity
  8
Layer 1
 62
   250
370
    25
100
AcDbVertex
100
AcDb2dVertex
 10
398.3229735332318
 20
-106.4231336539498
 30
0.0
  0
SEQEND
  5
1DB
330
1D8
100
AcDbEntity
  8
Layer 1
370
    25
  0
POLYLINE
  5
1DC
330
1F
100
AcDbEntity
  8
Layer 1
 62
   250
370
    25
100
AcDb2dPolyline
 66
     1
 10
0.0
 20
0.0
 30
0.0
  0
VERTEX
  5
1DD
330
1DC
100
AcDbEntity
  8
Layer 1
 62
   250
370
    25
100
AcDbVertex
100
AcDb2dVertex
 10
410.3232746370026
 20
11.49094373627657
 30
0.0
  0
VERTEX
  5
1DE
330
1DC
100
AcDbEntity
  8
Layer 1
 62
   250
370
    25
100
AcDbVertex
100
AcDb2dVertex
 10
419.1027559716132
 20
11.49094373627657
 30
0.0
  0
SEQEND
  5
1DF
330
1DC
100
AcDbEntity
  8
Layer 1
370
    25
  0
POLYLINE
  5
1E0
330
1F
100
AcDbEntity
  8
Layer 1
 62
   250
370
    25
100
AcDb2dPolyline
 66
     1
 10
0.0
 20
0.0
 30
0.0
  0
VERTEX
  5
1E1
330
1E0
100
AcDbEntity
  8
Layer 1
 62
   250
370
    25
100
AcDbVertex
100
AcDb2dVertex
 10
410.3232746370026
 20
17.49092203338769
 30
0.0
  0
VERTEX
  5
1E2
330
1E0
100
AcDbEntity
  8
Layer 1
 62
   250
370
    25
100
AcDbVertex
100
AcDb2dVertex
 10
419.1027559716132
 20
17.49092203338769
 30
0.0
  0
SEQEND
  5
1E3
330
1E0
100
AcDbEntity
  8
Layer 1
370
    25
  0
POLYLINE
  5
1E4
330
1F
100
AcDbEntity
  8
Layer 1
 62
   250
370
    25
100
AcDb2dPolyline
 66
     1
 10
0.0
 20
0.0
 30
0.0
  0
VERTEX
  5
1E5
330
1E4
100
AcDbEntity
  8
Layer 1
 62
   250
370
    25
100
AcDbVertex
100
AcDb2dVertex
 10
398.3229735332318
 20
23.4909003304988
 30
0.0
  0
VERTEX
  5
1E6
330
1E4
100
AcDbEntity
  8
Layer 1
 62
   250
370
    25
100
AcDbVertex
100
AcDb2dVertex
 10
419.1031004811617
 20
23.4909003304988
 30
0.0
  0
SEQEND
  5
1E7
330
1E4
100
AcDbEntity
  8
Layer 1
370
    25
  0
POLYLINE
  5
1E8
330
1F
100
AcDbEntity
  8
Layer 1
 62
   250
370
    25
100
AcDb2dPolyline
 66
     1
 10
0.0
 20
0.0
 30
0.0
  0
VERTEX
  5
1E9
330
1E8
100
AcDbEntity
  8
Layer 1
 62
   250
370
    25
100
AcDbVertex
100
AcDb2dVertex
 10
231.3767469039614
 20
-204.4533256867339
 30
0.0
  0
VERTEX
  5
1EA
330
1E8
100
AcDbEntity
  8
Layer 1
 62
   250
370
    25
100
AcDbVertex
100
AcDb2dVertex
 10
255.3763155828573
 20
-204.4533256867339
 30
0.0
  0
SEQEND
  5
1EB
330
1E8
100
AcDbEntity
  8
Layer 1
370
    25
  0
POLYLINE
  5
1EC
330
1F
100
AcDbEntity
  8
Layer 1
 62
   250
370
    25
100
AcDb2dPolyline
 66
     1
 10
0.0
 20
0.0
 30
0.0
  0
VERTEX
  5
1ED
330
1EC
100
AcDbEntity
  8
Layer 1
 62
   250
370
    25
100
AcDbVertex
100
AcDb2dVertex
 10
255.3766600924058
 20
-198.4533473896228
 30
0.0
  0
VERTEX
  5
1EE
330
1EC
100
AcDbEntity
  8
Layer 1
 62
   250
370
    25
100
AcDbVertex
100
AcDb2dVertex
 10
243.3767034981836
 20
-198.4533473896228
 30
0.0
  0
SEQEND
  5
1EF
330
1EC
100
AcDbEntity
  8
Layer 1
370
    25
  0
POLYLINE
  5
1F0
330
1F
100
AcDbEntity
  8
Layer 1
 62
   250
370
    25
100
AcDb2dPolyline
 66
     1
 10
0.0
 20
0.0
 30
0.0
  0
VERTEX
  5
1F1
330
1F0
100
AcDbEntity
  8
Layer 1
 62
   250
370
    25
100
AcDbVertex
100
AcDb2dVertex
 10
243.3767034981836
 20
-192.5363958937062
 30
0.0
  0
VERTEX
  5
1F2
330
1F0
100
AcDbEntity
  8
Layer 1
 62
   250
370
    25
100
AcDbVertex
100
AcDb2dVertex
 10
309.7995224919946
 20
-192.5363958937062
 30
0.0
  0
SEQEND
  5
1F3
330
1F0
100
AcDbEntity
  8
Layer 1
370
    25
  0
POLYLINE
  5
1F4
330
1F
100
AcDbEntity
  8
Layer 1
 62
   250
370
    25
100
AcDb2dPolyline
 66
     1
 10
0.0
 20
0.0
 30
0.0
  0
VERTEX
  5
1F5
330
1F4
100
AcDbEntity
  8
Layer 1
 62
   250
370
    25
100
AcDbVertex
100
AcDb2dVertex
 10
309.7995224919946
 20
-150.9334228138291
 30
0.0
  0
VERTEX
  5
1F6
330
1F4
100
AcDbEntity
  8
Layer 1
 62
   250
370
    25
100
AcDbVertex
100
AcDb2dVertex
 10
317.4097384189114
 20
-150.9334228138291
 30
0.0
  0
SEQEND
  5
1F7
330
1F4
100
AcDbEntity
  8
Layer 1
370
    25
  0
POLYLINE
  5
1F8
330
1F
100
AcDbEntity
  8
Layer 1
 62
   250
370
    25
100
AcDb2dPolyline
 66
     1
 10
0.0
 20
0.0
 30
0.0
  0
VERTEX
  5
1F9
330
1F8
100
AcDbEntity
  8
Layer 1
 62
   250
370
    25
100
AcDbVertex
100
AcDb2dVertex
 10
309.7995224919946
 20
-126.9331651158362
 30
0.0
  0
VERTEX
  5
1FA
330
1F8
100
AcDbEntity
  8
Layer 1
 62
   250
370
    25
100
AcDbVertex
100
AcDb2dVertex
 10
317.4097384189114
 20
-126.9331651158362
 30
0.0
  0
SEQEND
  5
1FB
330
1F8
100
AcDbEntity
  8
Layer 1
370
    25
  0
POLYLINE
  5
1FC
330
1F
100
AcDbEntity
  8
Layer 1
 62
   250
370
    25
100
AcDb2dPolyline
 66
     1
 10
0.0
 20
0.0
 30
0.0
  0
VERTEX
  5
1FD
330
1FC
100
AcDbEntity
  8
Layer 1
 62
   250
370
    25
100
AcDbVertex
100
AcDb2dVertex
 10
317.4097384189114
 20
-150.9334228138291
 30
0.0
  0
VERTEX
  5
1FE
330
1FC
100
AcDbEntity
  8
Layer 1
 62
   250
370
    25
100
AcDbVertex
100
AcDb2dVertex
 10
317.4097384189114
 20
-126.9335096253847
 30
0.0
  0
SEQEND
  5
1FF
330
1FC
100
AcDbEntity
  8
Layer 1
370
    25
  0
POLYLINE
  5
200
330
1F
100
AcDbEntity
  8
Layer 1
 62
   250
370
    25
100
AcDb2dPolyline
 66
     1
 10
0.0
 20
0.0
 30
0.0
  0
VERTEX
  5
201
330
200
100
AcDbEntity
  8
Layer 1
 62
   250
370
    25
100
AcDbVertex
100
AcDb2dVertex
 10
309.7995224919946
 20
-192.5363958937062
 30
0.0
  0
VERTEX
  5
202
330
200
100
AcDbEntity
  8
Layer 1
 62
   250
370
    25
100
AcDbVertex
100
AcDb2dVertex
 10
309.7995224919946
 20
-150.9334228138291
 30
0.0
  0
SEQEND
  5
203
330
200
100
AcDbEntity
  8
Layer 1
370
    25
  0
POLYLINE
  5
204
330
1F
100
AcDbEntity
  8
Layer 1
 62
   250
370
    25
100
AcDb2dPolyline
 66
     1
 10
0.0
 20
0.0
 30
0.0
  0
VERTEX
  5
205
330
204
100
AcDbEntity
  8
Layer 1
 62
   250
370
    25
100
AcDbVertex
100
AcDb2dVertex
 10
309.7995224919946
 20
-126.9331651158362
 30
0.0
  0
VERTEX
  5
206
330
204
100
AcDbEntity
  8
Layer 1
 62
   250
370
    25
100
AcDbVertex
100
AcDb2dVertex
 10
309.7995224919946
 20
-86.53942055128182
 30
0.0
  0
SEQEND
  5
207
330
204
100
AcDbEntity
  8
Layer 1
370
    25
  0
POLYLINE
  5
208
330
1F
100
AcDbEntity
  8
Layer 1
 62
   250
370
    25
100
AcDb2dPolyline
 66
     1
 10
0.0
 20
0.0
 30
0.0
  0
VERTEX
  5
209
330
208
100
AcDbEntity
  8
Layer 1
 62
   250
370
    25
100
AcDbVertex
100
AcDb2dVertex
 10
255.3766600924058
 20
-204.4533256867339
 30
0.0
  0
VERTEX
  5
20A
330
208
100
AcDbEntity
  8
Layer 1
 62
   250
370
    25
100
AcDbVertex
100
AcDb2dVertex
 10
255.3766600924058
 20
-198.4533473896228
 30
0.0
  0
SEQEND
  5
20B
330
208
100
AcDbEntity
  8
Layer 1
370
    25
  0
POLYLINE
  5
20C
330
1F
100
AcDbEntity
  8
Layer 1
 62
   250
370
    25
100
AcDb2dPolyline
 66
     1
 10
0.0
 20
0.0
 30
0.0
  0
VERTEX
  5
20D
330
20C
100
AcDbEntity
  8
Layer 1
 62
   250
370
    25
100
AcDbVertex
100
AcDb2dVertex
 10
255.3766600924058
 20
-80.5394422541707
 30
0.0
  0
VERTEX
  5
20E
330
20C
100
AcDbEntity
  8
Layer 1
 62
   250
370
    25
100
AcDbVertex
100
AcDb2dVertex
 10
255.3766600924058
 20
-74.53946395705958
 30
0.0
  0
SEQEND
  5
20F
330
20C
100
AcDbEntity
  8
Layer 1
370
    25
  0
POLYLINE
  5
210
330
1F
100
AcDbEntity
  8
Layer 1
 62
   250
370
    25
100
AcDb2dPolyline
 66
     1
 10
0.0
 20
0.0
 30
0.0
  0
VERTEX
  5
211
330
210
100
AcDbEntity
  8
Layer 1
 62
   250
370
    25
100
AcDbVertex
100
AcDb2dVertex
 10
243.3767034981836
 20
-192.4533690925117
 30
0.0
  0
VERTEX
  5
212
330
210
100
AcDbEntity
  8
Layer 1
 62
   250
370
    25
100
AcDbVertex
100
AcDb2dVertex
 10
243.3767034981836
 20
-198.4536918991713
 30
0.0
  0
SEQEND
  5
213
330
210
100
AcDbEntity
  8
Layer 1
370
    25
  0
POLYLINE
  5
214
330
1F
100
AcDbEntity
  8
Layer 1
 62
   250
370
    25
100
AcDb2dPolyline
 66
     1
 10
0.0
 20
0.0
 30
0.0
  0
VERTEX
  5
215
330
214
100
AcDbEntity
  8
Layer 1
 62
   250
370
    25
100
AcDbVertex
100
AcDb2dVertex
 10
243.3767034981836
 20
-80.5394422541707
 30
0.0
  0
VERTEX
  5
216
330
214
100
AcDbEntity
  8
Layer 1
 62
   250
370
    25
100
AcDbVertex
100
AcDb2dVertex
 10
243.3767034981836
 20
-86.53942055128182
 30
0.0
  0
SEQEND
  5
217
330
214
100
AcDbEntity
  8
Layer 1
370
    25
  0
POLYLINE
  5
218
330
1F
100
AcDbEntity
  8
Layer 1
 62
   250
370
    25
100
AcDb2dPolyline
 66
     1
 10
0.0
 20
0.0
 30
0.0
  0
VERTEX
  5
219
330
218
100
AcDbEntity
  8
Layer 1
 62
   250
370
    25
100
AcDbVertex
100
AcDb2dVertex
 10
231.3767469039614
 20
-74.53946395705958
 30
0.0
  0
VERTEX
  5
21A
330
218
100
AcDbEntity
  8
Layer 1
 62
   250
370
    25
100
AcDbVertex
100
AcDb2dVertex
 10
231.3767469039614
 20
-204.4533256867339
 30
0.0
  0
SEQEND
  5
21B
330
218
100
AcDbEntity
  8
Layer 1
370
    25
  0
POLYLINE
  5
21C
330
1F
100
AcDbEntity
  8
Layer 1
 62
   250
370
    25
100
AcDb2dPolyline
 66
     1
 10
0.0
 20
0.0
 30
0.0
  0
VERTEX
  5
21D
330
21C
100
AcDbEntity
  8
Layer 1
 62
   250
370
    25
100
AcDbVertex
100
AcDb2dVertex
 10
243.3767034981836
 20
-86.53942055128182
 30
0.0
  0
VERTEX
  5
21E
330
21C
100
AcDbEntity
  8
Layer 1
 62
   250
370
    25
100
AcDbVertex
100
AcDb2dVertex
 10
309.7995224919946
 20
-86.53942055128182
 30
0.0
  0
SEQEND
  5
21F
330
21C
100
AcDbEntity
  8
Layer 1
370
    25
  0
POLYLINE
  5
220
330
1F
100
AcDbEntity
  8
Layer 1
 62
   250
370
    25
100
AcDb2dPolyline
 66
     1
 10
0.0
 20
0.0
 30
0.0
  0
VERTEX
  5
221
330
220
100
AcDbEntity
  8
Layer 1
 62
   250
370
    25
100
AcDbVertex
100
AcDb2dVertex
 10
255.3766600924058
 20
-80.5394422541707
 30
0.0
  0
VERTEX
  5
222
330
220
100
AcDbEntity
  8
Layer 1
 62
   250
370
    25
100
AcDbVertex
100
AcDb2dVertex
 10
243.3767034981836
 20
-80.5394422541707
 30
0.0
  0
SEQEND
  5
223
330
220
100
AcDbEntity
  8
Layer 1
370
    25
  0
POLYLINE
  5
224
330
1F
100
AcDbEntity
  8
Layer 1
 62
   250
370
    25
100
AcDb2dPolyline
 66
     1
 10
0.0
 20
0.0
 30
0.0
  0
VERTEX
  5
225
330
224
100
AcDbEntity
  8
Layer 1
 62
   250
370
    25
100
AcDbVertex
100
AcDb2dVertex
 10
255.3766600924058
 20
-74.53946395705958
 30
0.0
  0
VERTEX
  5
226
330
224
100
AcDbEntity
  8
Layer 1
 62
   250
370
    25
100
AcDbVertex
100
AcDb2dVertex
 10
231.3767469039614
 20
-74.53946395705958
 30
0.0
  0
SEQEND
  5
227
330
224
100
AcDbEntity
  8
Layer 1
370
    25
  0
POLYLINE
  5
228
330
1F
100
AcDbEntity
  8
Layer 1
 62
   250
370
    25
100
AcDb2dPolyline
 66
     1
 10
0.0
 20
0.0
 30
0.0
  0
VERTEX
  5
229
330
228
100
AcDbEntity
  8
Layer 1
 62
   250
370
    25
100
AcDbVertex
100
AcDb2dVertex
 10
278.1983506248949
 20
-317.8696586661923
 30
0.0
  0
VERTEX
  5
22A
330
228
100
AcDbEntity
  8
Layer 1
 62
   250
370
    25
100
AcDbVertex
100
AcDb2dVertex
 10
356.6211262129281
 20
-317.8696586661923
 30
0.0
  0
SEQEND
  5
22B
330
228
100
AcDbEntity
  8
Layer 1
370
    25
  0
POLYLINE
  5
22C
330
1F
100
AcDbEntity
  8
Layer 1
 62
   250
370
    25
100
AcDb2dPolyline
 66
     1
 10
0.0
 20
0.0
 30
0.0
  0
VERTEX
  5
22D
330
22C
100
AcDbEntity
  8
Layer 1
 62
   250
370
    25
100
AcDbVertex
100
AcDb2dVertex
 10
278.1983506248949
 20
-317.8696586661923
 30
0.0
  0
VERTEX
  5
22E
330
22C
100
AcDbEntity
  8
Layer 1
 62
   250
370
    25
100
AcDbVertex
100
AcDb2dVertex
 10
278.1983506248949
 20
-213.0822563486392
 30
0.0
  0
SEQEND
  5
22F
330
22C
100
AcDbEntity
  8
Layer 1
370
    25
  0
POLYLINE
  5
230
330
1F
100
AcDbEntity
  8
Layer 1
 62
   250
370
    25
100
AcDb2dPolyline
 66
     1
 10
0.0
 20
0.0
 30
0.0
  0
VERTEX
  5
231
330
230
100
AcDbEntity
  8
Layer 1
 62
   250
370
    25
100
AcDbVertex
100
AcDb2dVertex
 10
341.424810027491
 20
-273.9867213941769
 30
0.0
  0
VERTEX
  5
232
330
230
100
AcDbEntity
  8
Layer 1
 62
   250
370
    25
100
AcDbVertex
100
AcDb2dVertex
 10
288.1381401189377
 20
-273.9867213941769
 30
0.0
  0
SEQEND
  5
233
330
230
100
AcDbEntity
  8
Layer 1
370
    25
  0
POLYLINE
  5
234
330
1F
100
AcDbEntity
  8
Layer 1
 62
   250
370
    25
100
AcDb2dPolyline
 66
     1
 10
0.0
 20
0.0
 30
0.0
  0
VERTEX
  5
235
330
234
100
AcDbEntity
  8
Layer 1
 62
   250
370
    25
100
AcDbVertex
100
AcDb2dVertex
 10
288.1381401189377
 20
-257.8805554910854
 30
0.0
  0
VERTEX
  5
236
330
234
100
AcDbEntity
  8
Layer 1
 62
   250
370
    25
100
AcDbVertex
100
AcDb2dVertex
 10
341.424810027491
 20
-257.8805554910854
 30
0.0
  0
SEQEND
  5
237
330
234
100
AcDbEntity
  8
Layer 1
370
    25
  0
POLYLINE
  5
238
330
1F
100
AcDbEntity
  8
Layer 1
 62
   250
370
    25
100
AcDb2dPolyline
 66
     1
 10
0.0
 20
0.0
 30
0.0
  0
VERTEX
  5
239
330
238
100
AcDbEntity
  8
Layer 1
 62
   250
370
    25
100
AcDbVertex
100
AcDb2dVertex
 10
341.5440103312807
 20
-257.8805554910854
 30
0.0
  0
VERTEX
  5
23A
330
238
100
AcDbEntity
  8
Layer 1
 62
   250
370
    25
100
AcDbVertex
100
AcDb2dVertex
 10
341.5440103312807
 20
-273.9867213941769
 30
0.0
  0
SEQEND
  5
23B
330
238
100
AcDbEntity
  8
Layer 1
370
    25
  0
POLYLINE
  5
23C
330
1F
100
AcDbEntity
  8
Layer 1
 62
   250
370
    25
100
AcDb2dPolyline
 66
     1
 10
0.0
 20
0.0
 30
0.0
  0
VERTEX
  5
23D
330
23C
100
AcDbEntity
  8
Layer 1
 62
   250
370
    25
100
AcDbVertex
100
AcDb2dVertex
 10
356.6211262129281
 20
-317.8696586661923
 30
0.0
  0
VERTEX
  5
23E
330
23C
100
AcDbEntity
  8
Layer 1
 62
   250
370
    25
100
AcDbVertex
100
AcDb2dVertex
 10
356.6211262129281
 20
-213.0822563486392
 30
0.0
  0
SEQEND
  5
23F
330
23C
100
AcDbEntity
  8
Layer 1
370
    25
  0
POLYLINE
  5
240
330
1F
100
AcDbEntity
  8
Layer 1
 62
   250
370
    25
100
AcDb2dPolyline
 66
     1
 10
0.0
 20
0.0
 30
0.0
  0
VERTEX
  5
241
330
240
100
AcDbEntity
  8
Layer 1
 62
   250
370
    25
100
AcDbVertex
100
AcDb2dVertex
 10
356.6211262129281
 20
-213.0822563486392
 30
0.0
  0
VERTEX
  5
242
330
240
100
AcDbEntity
  8
Layer 1
 62
   250
370
    25
100
AcDbVertex
100
AcDb2dVertex
 10
278.1983506248949
 20
-213.0822563486392
 30
0.0
  0
SEQEND
  5
243
330
240
100
AcDbEntity
  8
Layer 1
370
    25
  0
POLYLINE
  5
244
330
1F
100
AcDbEntity
  8
Layer 1
 62
   250
370
    25
100
AcDb2dPolyline
 66
     1
 10
0.0
 20
0.0
 30
0.0
  0
VERTEX
  5
245
330
244
100
AcDbEntity
  8
Layer 1
 62
   250
370
    25
100
AcDbVertex
100
AcDb2dVertex
 10
288.1381401189377
 20
-257.8805554910854
 30
0.0
  0
VERTEX
  5
246
330
244
100
AcDbEntity
  8
Layer 1
 62
   250
370
    25
100
AcDbVertex
100
AcDb2dVertex
 10
288.1381401189377
 20
-273.9867213941769
 30
0.0
  0
SEQEND
  5
247
330
244
100
AcDbEntity
  8
Layer 1
370
    25
  0
POLYLINE
  5
248
330
1F
100
AcDbEntity
  8
Layer 1
 62
   250
370
    25
100
AcDb2dPolyline
 66
     1
 10
0.0
 20
0.0
 30
0.0
  0
VERTEX
  5
249
330
248
100
AcDbEntity
  8
Layer 1
 62
   250
370
    25
100
AcDbVertex
100
AcDb2dVertex
 10
362.6262721532671
 20
-317.8696586661923
 30
0.0
  0
VERTEX
  5
24A
330
248
100
AcDbEntity
  8
Layer 1
 62
   250
370
    25
100
AcDbVertex
100
AcDb2dVertex
 10
441.0490477413003
 20
-317.8696586661923
 30
0.0
  0
SEQEND
  5
24B
330
248
100
AcDbEntity
  8
Layer 1
370
    25
  0
POLYLINE
  5
24C
330
1F
100
AcDbEntity
  8
Layer 1
 62
   250
370
    25
100
AcDb2dPolyline
 66
     1
 10
0.0
 20
0.0
 30
0.0
  0
VERTEX
  5
24D
330
24C
100
AcDbEntity
  8
Layer 1
 62
   250
370
    25
100
AcDbVertex
100
AcDb2dVertex
 10
362.6262721532671
 20
-317.8696586661923
 30
0.0
  0
VERTEX
  5
24E
330
24C
100
AcDbEntity
  8
Layer 1
 62
   250
370
    25
100
AcDbVertex
100
AcDb2dVertex
 10
362.6262721532671
 20
-213.0822563486392
 30
0.0
  0
SEQEND
  5
24F
330
24C
100
AcDbEntity
  8
Layer 1
370
    25
  0
POLYLINE
  5
250
330
1F
100
AcDbEntity
  8
Layer 1
 62
   250
370
    25
100
AcDb2dPolyline
 66
     1
 10
0.0
 20
0.0
 30
0.0
  0
VERTEX
  5
251
330
250
100
AcDbEntity
  8
Layer 1
 62
   250
370
    25
100
AcDbVertex
100
AcDb2dVertex
 10
425.8523870463147
 20
-273.9867213941769
 30
0.0
  0
VERTEX
  5
252
330
250
100
AcDbEntity
  8
Layer 1
 62
   250
370
    25
100
AcDbVertex
100
AcDb2dVertex
 10
372.5660616473099
 20
-273.9867213941769
 30
0.0
  0
SEQEND
  5
253
330
250
100
AcDbEntity
  8
Layer 1
370
    25
  0
POLYLINE
  5
254
330
1F
100
AcDbEntity
  8
Layer 1
 62
   250
370
    25
100
AcDb2dPolyline
 66
     1
 10
0.0
 20
0.0
 30
0.0
  0
VERTEX
  5
255
330
254
100
AcDbEntity
  8
Layer 1
 62
   250
370
    25
100
AcDbVertex
100
AcDb2dVertex
 10
372.5660616473099
 20
-257.8805554910854
 30
0.0
  0
VERTEX
  5
256
330
254
100
AcDbEntity
  8
Layer 1
 62
   250
370
    25
100
AcDbVertex
100
AcDb2dVertex
 10
425.8523870463147
 20
-257.8805554910854
 30
0.0
  0
SEQEND
  5
257
330
254
100
AcDbEntity
  8
Layer 1
370
    25
  0
POLYLINE
  5
258
330
1F
100
AcDbEntity
  8
Layer 1
 62
   250
370
    25
100
AcDb2dPolyline
 66
     1
 10
0.0
 20
0.0
 30
0.0
  0
VERTEX
  5
259
330
258
100
AcDbEntity
  8
Layer 1
 62
   250
370
    25
100
AcDbVertex
100
AcDb2dVertex
 10
425.9715873501044
 20
-257.8805554910854
 30
0.0
  0
VERTEX
  5
25A
330
258
100
AcDbEntity
  8
Layer 1
 62
   250
370
    25
100
AcDbVertex
100
AcDb2dVertex
 10
425.9715873501044
 20
-273.9867213941769
 30
0.0
  0
SEQEND
  5
25B
330
258
100
AcDbEntity
  8
Layer 1
370
    25
  0
POLYLINE
  5
25C
330
1F
100
AcDbEntity
  8
Layer 1
 62
   250
370
    25
100
AcDb2dPolyline
 66
     1
 10
0.0
 20
0.0
 30
0.0
  0
VERTEX
  5
25D
330
25C
100
AcDbEntity
  8
Layer 1
 62
   250
370
    25
100
AcDbVertex
100
AcDb2dVertex
 10
441.0490477413003
 20
-317.8696586661923
 30
0.0
  0
VERTEX
  5
25E
330
25C
100
AcDbEntity
  8
Layer 1
 62
   250
370
    25
100
AcDbVertex
100
AcDb2dVertex
 10
441.0490477413003
 20
-213.0819118390907
 30
0.0
  0
SEQEND
  5
25F
330
25C
100
AcDbEntity
  8
Layer 1
370
    25
  0
POLYLINE
  5
260
330
1F
100
AcDbEntity
  8
Layer 1
 62
   250
370
    25
100
AcDb2dPolyline
 66
     1
 10
0.0
 20
0.0
 30
0.0
  0
VERTEX
  5
261
330
260
100
AcDbEntity
  8
Layer 1
 62
   250
370
    25
100
AcDbVertex
100
AcDb2dVertex
 10
441.0490477413003
 20
-213.0822563486392
 30
0.0
  0
VERTEX
  5
262
330
260
100
AcDbEntity
  8
Layer 1
 62
   250
370
    25
100
AcDbVertex
100
AcDb2dVertex
 10
362.6262721532671
 20
-213.0822563486392
 30
0.0
  0
SEQEND
  5
263
330
260
100
AcDbEntity
  8
Layer 1
370
    25
  0
POLYLINE
  5
264
330
1F
100
AcDbEntity
  8
Layer 1
 62
   250
370
    25
100
AcDb2dPolyline
 66
     1
 10
0.0
 20
0.0
 30
0.0
  0
VERTEX
  5
265
330
264
100
AcDbEntity
  8
Layer 1
 62
   250
370
    25
100
AcDbVertex
100
AcDb2dVertex
 10
372.5660616473099
 20
-257.8805554910854
 30
0.0
  0
VERTEX
  5
266
330
264
100
AcDbEntity
  8
Layer 1
 62
   250
370
    25
100
AcDbVertex
100
AcDb2dVertex
 10
372.5660616473099
 20
-273.9867213941769
 30
0.0
  0
SEQEND
  5
267
330
264
100
AcDbEntity
  8
Layer 1
370
    25
  0
POLYLINE
  5
268
330
1F
100
AcDbEntity
  8
Layer 1
 62
   250
370
    25
100
AcDb2dPolyline
 66
     1
 10
0.0
 20
0.0
 30
0.0
  0
VERTEX
  5
269
330
268
100
AcDbEntity
  8
Layer 1
 62
   250
370
    25
100
AcDbVertex
100
AcDb2dVertex
 10
265.9665391045153
 20
23.53241373109606
 30
0.0
  0
VERTEX
  5
26A
330
268
100
AcDbEntity
  8
Layer 1
 62
   250
370
    25
100
AcDbVertex
100
AcDb2dVertex
 10
277.469368420216
 20
23.4605834902286
 30
0.0
  0
SEQEND
  5
26B
330
268
100
AcDbEntity
  8
Layer 1
370
    25
  0
POLYLINE
  5
26C
330
1F
100
AcDbEntity
  8
Layer 1
 62
   250
370
    25
100
AcDb2dPolyline
 66
     1
 10
0.0
 20
0.0
 30
0.0
  0
VERTEX
  5
26D
330
26C
100
AcDbEntity
  8
Layer 1
 62
   250
370
    25
100
AcDbVertex
100
AcDb2dVertex
 10
265.9613714612875
 20
-74.53946395705958
 30
0.0
  0
VERTEX
  5
26E
330
26C
100
AcDbEntity
  8
Layer 1
 62
   250
370
    25
100
AcDbVertex
100
AcDb2dVertex
 10
287.9614067205444
 20
-74.53946395705958
 30
0.0
  0
SEQEND
  5
26F
330
26C
100
AcDbEntity
  8
Layer 1
370
    25
  0
POLYLINE
  5
270
330
1F
100
AcDbEntity
  8
Layer 1
 62
   250
370
    25
100
AcDb2dPolyline
 66
     1
 10
0.0
 20
0.0
 30
0.0
  0
VERTEX
  5
271
330
270
100
AcDbEntity
  8
Layer 1
 62
   250
370
    25
100
AcDbVertex
100
AcDb2dVertex
 10
287.9614067205444
 20
-74.53946395705958
 30
0.0
  0
VERTEX
  5
272
330
270
100
AcDbEntity
  8
Layer 1
 62
   250
370
    25
100
AcDbVertex
100
AcDb2dVertex
 10
287.9614067205444
 20
23.53241373109606
 30
0.0
  0
SEQEND
  5
273
330
270
100
AcDbEntity
  8
Layer 1
370
    25
  0
POLYLINE
  5
274
330
1F
100
AcDbEntity
  8
Layer 1
 62
   250
370
    25
100
AcDb2dPolyline
 66
     1
 10
0.0
 20
0.0
 30
0.0
  0
VERTEX
  5
275
330
274
100
AcDbEntity
  8
Layer 1
 62
   250
370
    25
100
AcDbVertex
100
AcDb2dVertex
 10
287.9614067205444
 20
23.53241373109606
 30
0.0
  0
VERTEX
  5
276
330
274
100
AcDbEntity
  8
Layer 1
 62
   250
370
    25
100
AcDbVertex
100
AcDb2dVertex
 10
283.4696912268756
 20
23.53241373109606
 30
0.0
  0
SEQEND
  5
277
330
274
100
AcDbEntity
  8
Layer 1
370
    25
  0
POLYLINE
  5
278
330
1F
100
AcDbEntity
  8
Layer 1
 62
   250
370
    25
100
AcDb2dPolyline
 66
     1
 10
0.0
 20
0.0
 30
0.0
  0
VERTEX
  5
279
330
278
100
AcDbEntity
  8
Layer 1
 62
   250
370
    25
100
AcDbVertex
100
AcDb2dVertex
 10
305.1892957136333
 20
-62.54002412716014
 30
0.0
  0
VERTEX
  5
27A
330
278
100
AcDbEntity
  8
Layer 1
 62
   250
370
    25
100
AcDbVertex
100
AcDb2dVertex
 10
293.1924397053477
 20
-62.54002412716014
 30
0.0
  0
SEQEND
  5
27B
330
278
100
AcDbEntity
  8
Layer 1
370
    25
  0
POLYLINE
  5
27C
330
1F
100
AcDbEntity
  8
Layer 1
 62
   250
370
    25
100
AcDb2dPolyline
 66
     1
 10
0.0
 20
0.0
 30
0.0
  0
VERTEX
  5
27D
330
27C
100
AcDbEntity
  8
Layer 1
 62
   250
370
    25
100
AcDbVertex
100
AcDb2dVertex
 10
293.189339119411
 20
-56.53952906572623
 30
0.0
  0
VERTEX
  5
27E
330
27C
100
AcDbEntity
  8
Layer 1
 62
   250
370
    25
100
AcDbVertex
100
AcDb2dVertex
 10
305.1892957136333
 20
-56.54021808482328
 30
0.0
  0
SEQEND
  5
27F
330
27C
100
AcDbEntity
  8
Layer 1
370
    25
  0
POLYLINE
  5
280
330
1F
100
AcDbEntity
  8
Layer 1
 62
   250
370
    25
100
AcDb2dPolyline
 66
     1
 10
0.0
 20
0.0
 30
0.0
  0
VERTEX
  5
281
330
280
100
AcDbEntity
  8
Layer 1
 62
   250
370
    25
100
AcDbVertex
100
AcDb2dVertex
 10
293.195884800833
 20
23.52845187128803
 30
0.0
  0
VERTEX
  5
282
330
280
100
AcDbEntity
  8
Layer 1
 62
   250
370
    25
100
AcDbVertex
100
AcDb2dVertex
 10
293.189339119411
 20
-56.53952906572623
 30
0.0
  0
SEQEND
  5
283
330
280
100
AcDbEntity
  8
Layer 1
370
    25
  0
POLYLINE
  5
284
330
1F
100
AcDbEntity
  8
Layer 1
 62
   250
370
    25
100
AcDb2dPolyline
 66
     1
 10
0.0
 20
0.0
 30
0.0
  0
VERTEX
  5
285
330
284
100
AcDbEntity
  8
Layer 1
 62
   250
370
    25
100
AcDbVertex
100
AcDb2dVertex
 10
293.1924397053477
 20
-62.54002412716014
 30
0.0
  0
VERTEX
  5
286
330
284
100
AcDbEntity
  8
Layer 1
 62
   250
370
    25
100
AcDbVertex
100
AcDb2dVertex
 10
293.1879610812169
 20
-74.53929170228533
 30
0.0
  0
SEQEND
  5
287
330
284
100
AcDbEntity
  8
Layer 1
370
    25
  0
POLYLINE
  5
288
330
1F
100
AcDbEntity
  8
Layer 1
 62
   250
370
    25
100
AcDb2dPolyline
 66
     1
 10
0.0
 20
0.0
 30
0.0
  0
VERTEX
  5
289
330
288
100
AcDbEntity
  8
Layer 1
 62
   250
370
    25
100
AcDbVertex
100
AcDb2dVertex
 10
305.1892957136333
 20
-56.54004583004902
 30
0.0
  0
VERTEX
  5
28A
330
288
100
AcDbEntity
  8
Layer 1
 62
   250
370
    25
100
AcDbVertex
100
AcDb2dVertex
 10
305.1892957136333
 20
-62.54002412716014
 30
0.0
  0
SEQEND
  5
28B
330
288
100
AcDbEntity
  8
Layer 1
370
    25
  0
POLYLINE
  5
28C
330
1F
100
AcDbEntity
  8
Layer 1
 62
   250
370
    25
100
AcDb2dPolyline
 66
     1
 10
0.0
 20
0.0
 30
0.0
  0
VERTEX
  5
28D
330
28C
100
AcDbEntity
  8
Layer 1
 62
   250
370
    25
100
AcDbVertex
100
AcDb2dVertex
 10
304.696302549694
 20
11.53245713687383
 30
0.0
  0
VERTEX
  5
28E
330
28C
100
AcDbEntity
  8
Layer 1
 62
   250
370
    25
100
AcDbVertex
100
AcDb2dVertex
 10
304.6973360783396
 20
23.53241373109606
 30
0.0
  0
SEQEND
  5
28F
330
28C
100
AcDbEntity
  8
Layer 1
370
    25
  0
POLYLINE
  5
290
330
1F
100
AcDbEntity
  8
Layer 1
 62
   250
370
    25
100
AcDb2dPolyline
 66
     1
 10
0.0
 20
0.0
 30
0.0
  0
VERTEX
  5
291
330
290
100
AcDbEntity
  8
Layer 1
 62
   250
370
    25
100
AcDbVertex
100
AcDb2dVertex
 10
310.6966253563536
 20
23.53241373109606
 30
0.0
  0
VERTEX
  5
292
330
290
100
AcDbEntity
  8
Layer 1
 62
   250
370
    25
100
AcDbVertex
100
AcDb2dVertex
 10
310.6962808468051
 20
11.53194037255104
 30
0.0
  0
SEQEND
  5
293
330
290
100
AcDbEntity
  8
Layer 1
370
    25
  0
POLYLINE
  5
294
330
1F
100
AcDbEntity
  8
Layer 1
 62
   250
370
    25
100
AcDb2dPolyline
 66
     1
 10
0.0
 20
0.0
 30
0.0
  0
VERTEX
  5
295
330
294
100
AcDbEntity
  8
Layer 1
 62
   250
370
    25
100
AcDbVertex
100
AcDb2dVertex
 10
304.696302549694
 20
11.53245713687383
 30
0.0
  0
VERTEX
  5
296
330
294
100
AcDbEntity
  8
Layer 1
 62
   250
370
    25
100
AcDbVertex
100
AcDb2dVertex
 10
310.6962808468051
 20
11.53211262732531
 30
0.0
  0
SEQEND
  5
297
330
294
100
AcDbEntity
  8
Layer 1
370
    25
  0
POLYLINE
  5
298
330
1F
100
AcDbEntity
  8
Layer 1
 62
   250
370
    25
100
AcDb2dPolyline
 66
     1
 10
0.0
 20
0.0
 30
0.0
  0
VERTEX
  5
299
330
298
100
AcDbEntity
  8
Layer 1
 62
   250
370
    25
100
AcDbVertex
100
AcDb2dVertex
 10
293.1934732339933
 20
23.53241373109606
 30
0.0
  0
VERTEX
  5
29A
330
298
100
AcDbEntity
  8
Layer 1
 62
   250
370
    25
100
AcDbVertex
100
AcDb2dVertex
 10
304.696302549694
 20
23.4605834902286
 30
0.0
  0
SEQEND
  5
29B
330
298
100
AcDbEntity
  8
Layer 1
370
    25
  0
POLYLINE
  5
29C
330
1F
100
AcDbEntity
  8
Layer 1
 62
   250
370
    25
100
AcDb2dPolyline
 66
     1
 10
0.0
 20
0.0
 30
0.0
  0
VERTEX
  5
29D
330
29C
100
AcDbEntity
  8
Layer 1
 62
   250
370
    25
100
AcDbVertex
100
AcDb2dVertex
 10
293.1883055907654
 20
-74.53946395705958
 30
0.0
  0
VERTEX
  5
29E
330
29C
100
AcDbEntity
  8
Layer 1
 62
   250
370
    25
100
AcDbVertex
100
AcDb2dVertex
 10
315.1883408500224
 20
-74.53946395705958
 30
0.0
  0
SEQEND
  5
29F
330
29C
100
AcDbEntity
  8
Layer 1
370
    25
  0
POLYLINE
  5
2A0
330
1F
100
AcDbEntity
  8
Layer 1
 62
   250
370
    25
100
AcDb2dPolyline
 66
     1
 10
0.0
 20
0.0
 30
0.0
  0
VERTEX
  5
2A1
330
2A0
100
AcDbEntity
  8
Layer 1
 62
   250
370
    25
100
AcDbVertex
100
AcDb2dVertex
 10
315.1883408500224
 20
-74.53946395705958
 30
0.0
  0
VERTEX
  5
2A2
330
2A0
100
AcDbEntity
  8
Layer 1
 62
   250
370
    25
100
AcDbVertex
100
AcDb2dVertex
 10
315.1883408500224
 20
23.53241373109606
 30
0.0
  0
SEQEND
  5
2A3
330
2A0
100
AcDbEntity
  8
Layer 1
370
    25
  0
POLYLINE
  5
2A4
330
1F
100
AcDbEntity
  8
Layer 1
 62
   250
370
    25
100
AcDb2dPolyline
 66
     1
 10
0.0
 20
0.0
 30
0.0
  0
VERTEX
  5
2A5
330
2A4
100
AcDbEntity
  8
Layer 1
 62
   250
370
    25
100
AcDbVertex
100
AcDb2dVertex
 10
315.1883408500224
 20
23.53241373109606
 30
0.0
  0
VERTEX
  5
2A6
330
2A4
100
AcDbEntity
  8
Layer 1
 62
   250
370
    25
100
AcDbVertex
100
AcDb2dVertex
 10
310.6966253563536
 20
23.53241373109606
 30
0.0
  0
SEQEND
  5
2A7
330
2A4
100
AcDbEntity
  8
Layer 1
370
    25
  0
POLYLINE
  5
2A8
330
1F
100
AcDbEntity
  8
Layer 1
 62
   250
370
    25
100
AcDb2dPolyline
 66
     1
 10
0.0
 20
0.0
 30
0.0
  0
VERTEX
  5
2A9
330
2A8
100
AcDbEntity
  8
Layer 1
 62
   250
370
    25
100
AcDbVertex
100
AcDb2dVertex
 10
329.4107285417793
 20
-62.54002412716014
 30
0.0
  0
VERTEX
  5
2AA
330
2A8
100
AcDbEntity
  8
Layer 1
 62
   250
370
    25
100
AcDbVertex
100
AcDb2dVertex
 10
317.4104274380085
 20
-62.5415744201285
 30
0.0
  0
SEQEND
  5
2AB
330
2A8
100
AcDbEntity
  8
Layer 1
370
    25
  0
POLYLINE
  5
2AC
330
1F
100
AcDbEntity
  8
Layer 1
 62
   250
370
    25
100
AcDb2dPolyline
 66
     1
 10
0.0
 20
0.0
 30
0.0
  0
VERTEX
  5
2AD
330
2AC
100
AcDbEntity
  8
Layer 1
 62
   250
370
    25
100
AcDbVertex
100
AcDb2dVertex
 10
317.4107719475571
 20
-56.53952906572623
 30
0.0
  0
VERTEX
  5
2AE
330
2AC
100
AcDbEntity
  8
Layer 1
 62
   250
370
    25
100
AcDbVertex
100
AcDb2dVertex
 10
329.4107285417793
 20
-56.54021808482328
 30
0.0
  0
SEQEND
  5
2AF
330
2AC
100
AcDbEntity
  8
Layer 1
370
    25
  0
POLYLINE
  5
2B0
330
1F
100
AcDbEntity
  8
Layer 1
 62
   250
370
    25
100
AcDb2dPolyline
 66
     1
 10
0.0
 20
0.0
 30
0.0
  0
VERTEX
  5
2B1
330
2B0
100
AcDbEntity
  8
Layer 1
 62
   250
370
    25
100
AcDbVertex
100
AcDb2dVertex
 10
317.4149060621393
 20
23.53172471199901
 30
0.0
  0
VERTEX
  5
2B2
330
2B0
100
AcDbEntity
  8
Layer 1
 62
   250
370
    25
100
AcDbVertex
100
AcDb2dVertex
 10
317.4107719475571
 20
-56.54039033959754
 30
0.0
  0
SEQEND
  5
2B3
330
2B0
100
AcDbEntity
  8
Layer 1
370
    25
  0
POLYLINE
  5
2B4
330
1F
100
AcDbEntity
  8
Layer 1
 62
   250
370
    25
100
AcDb2dPolyline
 66
     1
 10
0.0
 20
0.0
 30
0.0
  0
VERTEX
  5
2B5
330
2B4
100
AcDbEntity
  8
Layer 1
 62
   250
370
    25
100
AcDbVertex
100
AcDb2dVertex
 10
317.4104274380085
 20
-62.5415744201285
 30
0.0
  0
VERTEX
  5
2B6
330
2B4
100
AcDbEntity
  8
Layer 1
 62
   250
370
    25
100
AcDbVertex
100
AcDb2dVertex
 10
317.4097384189114
 20
-74.53911944751106
 30
0.0
  0
SEQEND
  5
2B7
330
2B4
100
AcDbEntity
  8
Layer 1
370
    25
  0
POLYLINE
  5
2B8
330
1F
100
AcDbEntity
  8
Layer 1
 62
   250
370
    25
100
AcDb2dPolyline
 66
     1
 10
0.0
 20
0.0
 30
0.0
  0
VERTEX
  5
2B9
330
2B8
100
AcDbEntity
  8
Layer 1
 62
   250
370
    25
100
AcDbVertex
100
AcDb2dVertex
 10
329.4107285417793
 20
-56.54004583004902
 30
0.0
  0
VERTEX
  5
2BA
330
2B8
100
AcDbEntity
  8
Layer 1
 62
   250
370
    25
100
AcDbVertex
100
AcDb2dVertex
 10
329.4107285417793
 20
-62.54002412716014
 30
0.0
  0
SEQEND
  5
2BB
330
2B8
100
AcDbEntity
  8
Layer 1
370
    25
  0
POLYLINE
  5
2BC
330
1F
100
AcDbEntity
  8
Layer 1
 62
   250
370
    25
100
AcDb2dPolyline
 66
     1
 10
0.0
 20
0.0
 30
0.0
  0
VERTEX
  5
2BD
330
2BC
100
AcDbEntity
  8
Layer 1
 62
   250
370
    25
100
AcDbVertex
100
AcDb2dVertex
 10
328.91773537784
 20
11.53245713687383
 30
0.0
  0
VERTEX
  5
2BE
330
2BC
100
AcDbEntity
  8
Layer 1
 62
   250
370
    25
100
AcDbVertex
100
AcDb2dVertex
 10
328.9187689064856
 20
23.53241373109606
 30
0.0
  0
SEQEND
  5
2BF
330
2BC
100
AcDbEntity
  8
Layer 1
370
    25
  0
POLYLINE
  5
2C0
330
1F
100
AcDbEntity
  8
Layer 1
 62
   250
370
    25
100
AcDb2dPolyline
 66
     1
 10
0.0
 20
0.0
 30
0.0
  0
VERTEX
  5
2C1
330
2C0
100
AcDbEntity
  8
Layer 1
 62
   250
370
    25
100
AcDbVertex
100
AcDb2dVertex
 10
334.9180581844997
 20
23.53241373109606
 30
0.0
  0
VERTEX
  5
2C2
330
2C0
100
AcDbEntity
  8
Layer 1
 62
   250
370
    25
100
AcDbVertex
100
AcDb2dVertex
 10
334.9177136749511
 20
11.53194037255104
 30
0.0
  0
SEQEND
  5
2C3
330
2C0
100
AcDbEntity
  8
Layer 1
370
    25
  0
POLYLINE
  5
2C4
330
1F
100
AcDbEntity
  8
Layer 1
 62
   250
370
    25
100
AcDb2dPolyline
 66
     1
 10
0.0
 20
0.0
 30
0.0
  0
VERTEX
  5
2C5
330
2C4
100
AcDbEntity
  8
Layer 1
 62
   250
370
    25
100
AcDbVertex
100
AcDb2dVertex
 10
328.91773537784
 20
11.53245713687383
 30
0.0
  0
VERTEX
  5
2C6
330
2C4
100
AcDbEntity
  8
Layer 1
 62
   250
370
    25
100
AcDbVertex
100
AcDb2dVertex
 10
334.9177136749511
 20
11.53211262732531
 30
0.0
  0
SEQEND
  5
2C7
330
2C4
100
AcDbEntity
  8
Layer 1
370
    25
  0
POLYLINE
  5
2C8
330
1F
100
AcDbEntity
  8
Layer 1
 62
   250
370
    25
100
AcDb2dPolyline
 66
     1
 10
0.0
 20
0.0
 30
0.0
  0
VERTEX
  5
2C9
330
2C8
100
AcDbEntity
  8
Layer 1
 62
   250
370
    25
100
AcDbVertex
100
AcDb2dVertex
 10
394.3490558909961
 20
-100.3816419562414
 30
0.0
  0
VERTEX
  5
2CA
330
2C8
100
AcDbEntity
  8
Layer 1
 62
   250
370
    25
100
AcDbVertex
100
AcDb2dVertex
 10
385.5692300468369
 20
-100.3816419562414
 30
0.0
  0
SEQEND
  5
2CB
330
2C8
100
AcDbEntity
  8
Layer 1
370
    25
  0
POLYLINE
  5
2CC
330
1F
100
AcDbEntity
  8
Layer 1
 62
   250
370
    25
100
AcDb2dPolyline
 66
     1
 10
0.0
 20
0.0
 30
0.0
  0
VERTEX
  5
2CD
330
2CC
100
AcDbEntity
  8
Layer 1
 62
   250
370
    25
100
AcDbVertex
100
AcDb2dVertex
 10
385.5692300468369
 20
-94.46451820555055
 30
0.0
  0
VERTEX
  5
2CE
330
2CC
100
AcDbEntity
  8
Layer 1
 62
   250
370
    25
100
AcDbVertex
100
AcDb2dVertex
 10
394.3487113814476
 20
-94.46451820555055
 30
0.0
  0
SEQEND
  5
2CF
330
2CC
100
AcDbEntity
  8
Layer 1
370
    25
  0
POLYLINE
  5
2D0
330
1F
100
AcDbEntity
  8
Layer 1
 62
   250
370
    25
100
AcDb2dPolyline
 66
     1
 10
0.0
 20
0.0
 30
0.0
  0
VERTEX
  5
2D1
330
2D0
100
AcDbEntity
  8
Layer 1
 62
   250
370
    25
100
AcDbVertex
100
AcDb2dVertex
 10
385.5692300468369
 20
-52.38198783412673
 30
0.0
  0
VERTEX
  5
2D2
330
2D0
100
AcDbEntity
  8
Layer 1
 62
   250
370
    25
100
AcDbVertex
100
AcDb2dVertex
 10
391.569208343948
 20
-52.38198783412673
 30
0.0
  0
SEQEND
  5
2D3
330
2D0
100
AcDbEntity
  8
Layer 1
370
    25
  0
POLYLINE
  5
2D4
330
1F
100
AcDbEntity
  8
Layer 1
 62
   250
370
    25
100
AcDb2dPolyline
 66
     1
 10
0.0
 20
0.0
 30
0.0
  0
VERTEX
  5
2D5
330
2D4
100
AcDbEntity
  8
Layer 1
 62
   250
370
    25
100
AcDbVertex
100
AcDb2dVertex
 10
391.569208343948
 20
-28.38173013613374
 30
0.0
  0
VERTEX
  5
2D6
330
2D4
100
AcDbEntity
  8
Layer 1
 62
   250
370
    25
100
AcDbVertex
100
AcDb2dVertex
 10
385.5688855372883
 20
-28.38173013613374
 30
0.0
  0
SEQEND
  5
2D7
330
2D4
100
AcDbEntity
  8
Layer 1
370
    25
  0
POLYLINE
  5
2D8
330
1F
100
AcDbEntity
  8
Layer 1
 62
   250
370
    25
100
AcDb2dPolyline
 66
     1
 10
0.0
 20
0.0
 30
0.0
  0
VERTEX
  5
2D9
330
2D8
100
AcDbEntity
  8
Layer 1
 62
   250
370
    25
100
AcDbVertex
100
AcDb2dVertex
 10
394.3490558909961
 20
-106.3816202533525
 30
0.0
  0
VERTEX
  5
2DA
330
2D8
100
AcDbEntity
  8
Layer 1
 62
   250
370
    25
100
AcDbVertex
100
AcDb2dVertex
 10
394.3490558909961
 20
-100.3816419562414
 30
0.0
  0
SEQEND
  5
2DB
330
2D8
100
AcDbEntity
  8
Layer 1
370
    25
  0
POLYLINE
  5
2DC
330
1F
100
AcDbEntity
  8
Layer 1
 62
   250
370
    25
100
AcDb2dPolyline
 66
     1
 10
0.0
 20
0.0
 30
0.0
  0
VERTEX
  5
2DD
330
2DC
100
AcDbEntity
  8
Layer 1
 62
   250
370
    25
100
AcDbVertex
100
AcDb2dVertex
 10
394.3490558909961
 20
11.53245713687383
 30
0.0
  0
VERTEX
  5
2DE
330
2DC
100
AcDbEntity
  8
Layer 1
 62
   250
370
    25
100
AcDbVertex
100
AcDb2dVertex
 10
394.3490558909961
 20
-94.46486271509907
 30
0.0
  0
SEQEND
  5
2DF
330
2DC
100
AcDbEntity
  8
Layer 1
370
    25
  0
POLYLINE
  5
2E0
330
1F
100
AcDbEntity
  8
Layer 1
 62
   250
370
    25
100
AcDb2dPolyline
 66
     1
 10
0.0
 20
0.0
 30
0.0
  0
VERTEX
  5
2E1
330
2E0
100
AcDbEntity
  8
Layer 1
 62
   250
370
    25
100
AcDbVertex
100
AcDb2dVertex
 10
394.3490558909961
 20
17.53243543398495
 30
0.0
  0
VERTEX
  5
2E2
330
2E0
100
AcDbEntity
  8
Layer 1
 62
   250
370
    25
100
AcDbVertex
100
AcDb2dVertex
 10
394.3490558909961
 20
23.53241373109606
 30
0.0
  0
SEQEND
  5
2E3
330
2E0
100
AcDbEntity
  8
Layer 1
370
    25
  0
POLYLINE
  5
2E4
330
1F
100
AcDbEntity
  8
Layer 1
 62
   250
370
    25
100
AcDb2dPolyline
 66
     1
 10
0.0
 20
0.0
 30
0.0
  0
VERTEX
  5
2E5
330
2E4
100
AcDbEntity
  8
Layer 1
 62
   250
370
    25
100
AcDbVertex
100
AcDb2dVertex
 10
391.569208343948
 20
-52.38198783412673
 30
0.0
  0
VERTEX
  5
2E6
330
2E4
100
AcDbEntity
  8
Layer 1
 62
   250
370
    25
100
AcDbVertex
100
AcDb2dVertex
 10
391.569208343948
 20
-28.38207464568226
 30
0.0
  0
SEQEND
  5
2E7
330
2E4
100
AcDbEntity
  8
Layer 1
370
    25
  0
POLYLINE
  5
2E8
330
1F
100
AcDbEntity
  8
Layer 1
 62
   250
370
    25
100
AcDb2dPolyline
 66
     1
 10
0.0
 20
0.0
 30
0.0
  0
VERTEX
  5
2E9
330
2E8
100
AcDbEntity
  8
Layer 1
 62
   250
370
    25
100
AcDbVertex
100
AcDb2dVertex
 10
385.5692300468369
 20
-52.38198783412673
 30
0.0
  0
VERTEX
  5
2EA
330
2E8
100
AcDbEntity
  8
Layer 1
 62
   250
370
    25
100
AcDbVertex
100
AcDb2dVertex
 10
385.5692300468369
 20
-28.38207464568226
 30
0.0
  0
SEQEND
  5
2EB
330
2E8
100
AcDbEntity
  8
Layer 1
370
    25
  0
POLYLINE
  5
2EC
330
1F
100
AcDbEntity
  8
Layer 1
 62
   250
370
    25
100
AcDb2dPolyline
 66
     1
 10
0.0
 20
0.0
 30
0.0
  0
VERTEX
  5
2ED
330
2EC
100
AcDbEntity
  8
Layer 1
 62
   250
370
    25
100
AcDbVertex
100
AcDb2dVertex
 10
385.5692300468369
 20
-100.3816419562414
 30
0.0
  0
VERTEX
  5
2EE
330
2EC
100
AcDbEntity
  8
Layer 1
 62
   250
370
    25
100
AcDbVertex
100
AcDb2dVertex
 10
385.5692300468369
 20
-94.38149140435603
 30
0.0
  0
SEQEND
  5
2EF
330
2EC
100
AcDbEntity
  8
Layer 1
370
    25
  0
POLYLINE
  5
2F0
330
1F
100
AcDbEntity
  8
Layer 1
 62
   250
370
    25
100
AcDb2dPolyline
 66
     1
 10
0.0
 20
0.0
 30
0.0
  0
VERTEX
  5
2F1
330
2F0
100
AcDbEntity
  8
Layer 1
 62
   250
370
    25
100
AcDbVertex
100
AcDb2dVertex
 10
385.5692300468369
 20
11.53245713687383
 30
0.0
  0
VERTEX
  5
2F2
330
2F0
100
AcDbEntity
  8
Layer 1
 62
   250
370
    25
100
AcDbVertex
100
AcDb2dVertex
 10
385.5692300468369
 20
17.53243543398495
 30
0.0
  0
SEQEND
  5
2F3
330
2F0
100
AcDbEntity
  8
Layer 1
370
    25
  0
POLYLINE
  5
2F4
330
1F
100
AcDbEntity
  8
Layer 1
 62
   250
370
    25
100
AcDb2dPolyline
 66
     1
 10
0.0
 20
0.0
 30
0.0
  0
VERTEX
  5
2F5
330
2F4
100
AcDbEntity
  8
Layer 1
 62
   250
370
    25
100
AcDbVertex
100
AcDb2dVertex
 10
373.5689289430661
 20
23.53241373109606
 30
0.0
  0
VERTEX
  5
2F6
330
2F4
100
AcDbEntity
  8
Layer 1
 62
   250
370
    25
100
AcDbVertex
100
AcDb2dVertex
 10
373.5689289430661
 20
-106.3816202533525
 30
0.0
  0
SEQEND
  5
2F7
330
2F4
100
AcDbEntity
  8
Layer 1
370
    25
  0
POLYLINE
  5
2F8
330
1F
100
AcDbEntity
  8
Layer 1
 62
   250
370
    25
100
AcDb2dPolyline
 66
     1
 10
0.0
 20
0.0
 30
0.0
  0
VERTEX
  5
2F9
330
2F8
100
AcDbEntity
  8
Layer 1
 62
   250
370
    25
100
AcDbVertex
100
AcDb2dVertex
 10
385.5692300468369
 20
11.53245713687383
 30
0.0
  0
VERTEX
  5
2FA
330
2F8
100
AcDbEntity
  8
Layer 1
 62
   250
370
    25
100
AcDbVertex
100
AcDb2dVertex
 10
394.3487113814476
 20
11.53245713687383
 30
0.0
  0
SEQEND
  5
2FB
330
2F8
100
AcDbEntity
  8
Layer 1
370
    25
  0
POLYLINE
  5
2FC
330
1F
100
AcDbEntity
  8
Layer 1
 62
   250
370
    25
100
AcDb2dPolyline
 66
     1
 10
0.0
 20
0.0
 30
0.0
  0
VERTEX
  5
2FD
330
2FC
100
AcDbEntity
  8
Layer 1
 62
   250
370
    25
100
AcDbVertex
100
AcDb2dVertex
 10
385.5692300468369
 20
17.53243543398495
 30
0.0
  0
VERTEX
  5
2FE
330
2FC
100
AcDbEntity
  8
Layer 1
 62
   250
370
    25
100
AcDbVertex
100
AcDb2dVertex
 10
394.3487113814476
 20
17.53243543398495
 30
0.0
  0
SEQEND
  5
2FF
330
2FC
100
AcDbEntity
  8
Layer 1
370
    25
  0
POLYLINE
  5
300
330
1F
100
AcDbEntity
  8
Layer 1
 62
   250
370
    25
100
AcDb2dPolyline
 66
     1
 10
0.0
 20
0.0
 30
0.0
  0
VERTEX
  5
301
330
300
100
AcDbEntity
  8
Layer 1
 62
   250
370
    25
100
AcDbVertex
100
AcDb2dVertex
 10
373.5689289430661
 20
23.53241373109606
 30
0.0
  0
VERTEX
  5
302
330
300
100
AcDbEntity
  8
Layer 1
 62
   250
370
    25
100
AcDbVertex
100
AcDb2dVertex
 10
394.3490558909961
 20
23.53241373109606
 30
0.0
  0
SEQEND
  5
303
330
300
100
AcDbEntity
  8
Layer 1
370
    25
  0
POLYLINE
  5
304
330
1F
100
AcDbEntity
  8
Layer 1
 62
   250
370
    25
100
AcDb2dPolyline
 66
     1
 10
0.0
 20
0.0
 30
0.0
  0
VERTEX
  5
305
330
304
100
AcDbEntity
  8
Layer 1
 62
   250
370
    25
100
AcDbVertex
100
AcDb2dVertex
 10
317.4149060621393
 20
23.53241373109606
 30
0.0
  0
VERTEX
  5
306
330
304
100
AcDbEntity
  8
Layer 1
 62
   250
370
    25
100
AcDbVertex
100
AcDb2dVertex
 10
328.91773537784
 20
23.4605834902286
 30
0.0
  0
SEQEND
  5
307
330
304
100
AcDbEntity
  8
Layer 1
370
    25
  0
POLYLINE
  5
308
330
1F
100
AcDbEntity
  8
Layer 1
 62
   250
370
    25
100
AcDb2dPolyline
 66
     1
 10
0.0
 20
0.0
 30
0.0
  0
VERTEX
  5
309
330
308
100
AcDbEntity
  8
Layer 1
 62
   250
370
    25
100
AcDbVertex
100
AcDb2dVertex
 10
317.4097384189114
 20
-74.53946395705958
 30
0.0
  0
VERTEX
  5
30A
330
308
100
AcDbEntity
  8
Layer 1
 62
   250
370
    25
100
AcDbVertex
100
AcDb2dVertex
 10
339.4097736781684
 20
-74.53946395705958
 30
0.0
  0
SEQEND
  5
30B
330
308
100
AcDbEntity
  8
Layer 1
370
    25
  0
POLYLINE
  5
30C
330
1F
100
AcDbEntity
  8
Layer 1
 62
   250
370
    25
100
AcDb2dPolyline
 66
     1
 10
0.0
 20
0.0
 30
0.0
  0
VERTEX
  5
30D
330
30C
100
AcDbEntity
  8
Layer 1
 62
   250
370
    25
100
AcDbVertex
100
AcDb2dVertex
 10
339.4097736781684
 20
-74.53946395705958
 30
0.0
  0
VERTEX
  5
30E
330
30C
100
AcDbEntity
  8
Layer 1
 62
   250
370
    25
100
AcDbVertex
100
AcDb2dVertex
 10
339.4097736781684
 20
23.53241373109606
 30
0.0
  0
SEQEND
  5
30F
330
30C
100
AcDbEntity
  8
Layer 1
370
    25
  0
POLYLINE
  5
310
330
1F
100
AcDbEntity
  8
Layer 1
 62
   250
370
    25
100
AcDb2dPolyline
 66
     1
 10
0.0
 20
0.0
 30
0.0
  0
VERTEX
  5
311
330
310
100
AcDbEntity
  8
Layer 1
 62
   250
370
    25
100
AcDbVertex
100
AcDb2dVertex
 10
339.4097736781684
 20
23.53241373109606
 30
0.0
  0
VERTEX
  5
312
330
310
100
AcDbEntity
  8
Layer 1
 62
   250
370
    25
100
AcDbVertex
100
AcDb2dVertex
 10
334.9180581844997
 20
23.53241373109606
 30
0.0
  0
SEQEND
  5
313
330
310
100
AcDbEntity
  8
Layer 1
370
    25
  0
POLYLINE
  5
314
330
1F
100
AcDbEntity
  8
Layer 1
 62
   250
370
    25
100
AcDb2dPolyline
 66
     1
 10
0.0
 20
0.0
 30
0.0
  0
VERTEX
  5
315
330
314
100
AcDbEntity
  8
Layer 1
 62
   250
370
    25
100
AcDbVertex
100
AcDb2dVertex
 10
356.6376626712573
 20
-62.54002412716014
 30
0.0
  0
VERTEX
  5
316
330
314
100
AcDbEntity
  8
Layer 1
 62
   250
370
    25
100
AcDbVertex
100
AcDb2dVertex
 10
344.6408066629718
 20
-62.54002412716014
 30
0.0
  0
SEQEND
  5
317
330
314
100
AcDbEntity
  8
Layer 1
370
    25
  0
POLYLINE
  5
318
330
1F
100
AcDbEntity
  8
Layer 1
 62
   250
370
    25
100
AcDb2dPolyline
 66
     1
 10
0.0
 20
0.0
 30
0.0
  0
VERTEX
  5
319
330
318
100
AcDbEntity
  8
Layer 1
 62
   250
370
    25
100
AcDbVertex
100
AcDb2dVertex
 10
344.637706077035
 20
-56.53952906572623
 30
0.0
  0
VERTEX
  5
31A
330
318
100
AcDbEntity
  8
Layer 1
 62
   250
370
    25
100
AcDbVertex
100
AcDb2dVertex
 10
356.6376626712573
 20
-56.54021808482328
 30
0.0
  0
SEQEND
  5
31B
330
318
100
AcDbEntity
  8
Layer 1
370
    25
  0
POLYLINE
  5
31C
330
1F
100
AcDbEntity
  8
Layer 1
 62
   250
370
    25
100
AcDb2dPolyline
 66
     1
 10
0.0
 20
0.0
 30
0.0
  0
VERTEX
  5
31D
330
31C
100
AcDbEntity
  8
Layer 1
 62
   250
370
    25
100
AcDbVertex
100
AcDb2dVertex
 10
344.644251758457
 20
23.52845187128803
 30
0.0
  0
VERTEX
  5
31E
330
31C
100
AcDbEntity
  8
Layer 1
 62
   250
370
    25
100
AcDbVertex
100
AcDb2dVertex
 10
344.637706077035
 20
-56.53952906572623
 30
0.0
  0
SEQEND
  5
31F
330
31C
100
AcDbEntity
  8
Layer 1
370
    25
  0
POLYLINE
  5
320
330
1F
100
AcDbEntity
  8
Layer 1
 62
   250
370
    25
100
AcDb2dPolyline
 66
     1
 10
0.0
 20
0.0
 30
0.0
  0
VERTEX
  5
321
330
320
100
AcDbEntity
  8
Layer 1
 62
   250
370
    25
100
AcDbVertex
100
AcDb2dVertex
 10
344.6408066629718
 20
-62.54002412716014
 30
0.0
  0
VERTEX
  5
322
330
320
100
AcDbEntity
  8
Layer 1
 62
   250
370
    25
100
AcDbVertex
100
AcDb2dVertex
 10
344.6363280388409
 20
-74.53929170228533
 30
0.0
  0
SEQEND
  5
323
330
320
100
AcDbEntity
  8
Layer 1
370
    25
  0
POLYLINE
  5
324
330
1F
100
AcDbEntity
  8
Layer 1
 62
   250
370
    25
100
AcDb2dPolyline
 66
     1
 10
0.0
 20
0.0
 30
0.0
  0
VERTEX
  5
325
330
324
100
AcDbEntity
  8
Layer 1
 62
   250
370
    25
100
AcDbVertex
100
AcDb2dVertex
 10
356.6376626712573
 20
-56.54004583004902
 30
0.0
  0
VERTEX
  5
326
330
324
100
AcDbEntity
  8
Layer 1
 62
   250
370
    25
100
AcDbVertex
100
AcDb2dVertex
 10
356.6376626712573
 20
-62.54002412716014
 30
0.0
  0
SEQEND
  5
327
330
324
100
AcDbEntity
  8
Layer 1
370
    25
  0
POLYLINE
  5
328
330
1F
100
AcDbEntity
  8
Layer 1
 62
   250
370
    25
100
AcDb2dPolyline
 66
     1
 10
0.0
 20
0.0
 30
0.0
  0
VERTEX
  5
329
330
328
100
AcDbEntity
  8
Layer 1
 62
   250
370
    25
100
AcDbVertex
100
AcDb2dVertex
 10
356.144669507318
 20
11.53245713687383
 30
0.0
  0
VERTEX
  5
32A
330
328
100
AcDbEntity
  8
Layer 1
 62
   250
370
    25
100
AcDbVertex
100
AcDb2dVertex
 10
356.1457030359636
 20
23.53241373109606
 30
0.0
  0
SEQEND
  5
32B
330
328
100
AcDbEntity
  8
Layer 1
370
    25
  0
POLYLINE
  5
32C
330
1F
100
AcDbEntity
  8
Layer 1
 62
   250
370
    25
100
AcDb2dPolyline
 66
     1
 10
0.0
 20
0.0
 30
0.0
  0
VERTEX
  5
32D
330
32C
100
AcDbEntity
  8
Layer 1
 62
   250
370
    25
100
AcDbVertex
100
AcDb2dVertex
 10
362.1449923139776
 20
23.53241373109606
 30
0.0
  0
VERTEX
  5
32E
330
32C
100
AcDbEntity
  8
Layer 1
 62
   250
370
    25
100
AcDbVertex
100
AcDb2dVertex
 10
362.1446478044292
 20
11.53194037255104
 30
0.0
  0
SEQEND
  5
32F
330
32C
100
AcDbEntity
  8
Layer 1
370
    25
  0
POLYLINE
  5
330
330
1F
100
AcDbEntity
  8
Layer 1
 62
   250
370
    25
100
AcDb2dPolyline
 66
     1
 10
0.0
 20
0.0
 30
0.0
  0
VERTEX
  5
331
330
330
100
AcDbEntity
  8
Layer 1
 62
   250
370
    25
100
AcDbVertex
100
AcDb2dVertex
 10
356.144669507318
 20
11.53245713687383
 30
0.0
  0
VERTEX
  5
332
330
330
100
AcDbEntity
  8
Layer 1
 62
   250
370
    25
100
AcDbVertex
100
AcDb2dVertex
 10
362.1446478044292
 20
11.53211262732531
 30
0.0
  0
SEQEND
  5
333
330
330
100
AcDbEntity
  8
Layer 1
370
    25
  0
POLYLINE
  5
334
330
1F
100
AcDbEntity
  8
Layer 1
 62
   250
370
    25
100
AcDb2dPolyline
 66
     1
 10
0.0
 20
0.0
 30
0.0
  0
VERTEX
  5
335
330
334
100
AcDbEntity
  8
Layer 1
 62
   250
370
    25
100
AcDbVertex
100
AcDb2dVertex
 10
344.6418401916173
 20
23.53241373109606
 30
0.0
  0
VERTEX
  5
336
330
334
100
AcDbEntity
  8
Layer 1
 62
   250
370
    25
100
AcDbVertex
100
AcDb2dVertex
 10
356.144669507318
 20
23.4605834902286
 30
0.0
  0
SEQEND
  5
337
330
334
100
AcDbEntity
  8
Layer 1
370
    25
  0
POLYLINE
  5
338
330
1F
100
AcDbEntity
  8
Layer 1
 62
   250
370
    25
100
AcDb2dPolyline
 66
     1
 10
0.0
 20
0.0
 30
0.0
  0
VERTEX
  5
339
330
338
100
AcDbEntity
  8
Layer 1
 62
   250
370
    25
100
AcDbVertex
100
AcDb2dVertex
 10
344.6366725483895
 20
-74.53946395705958
 30
0.0
  0
VERTEX
  5
33A
330
338
100
AcDbEntity
  8
Layer 1
 62
   250
370
    25
100
AcDbVertex
100
AcDb2dVertex
 10
366.6367078076464
 20
-74.53946395705958
 30
0.0
  0
SEQEND
  5
33B
330
338
100
AcDbEntity
  8
Layer 1
370
    25
  0
POLYLINE
  5
33C
330
1F
100
AcDbEntity
  8
Layer 1
 62
   250
370
    25
100
AcDb2dPolyline
 66
     1
 10
0.0
 20
0.0
 30
0.0
  0
VERTEX
  5
33D
330
33C
100
AcDbEntity
  8
Layer 1
 62
   250
370
    25
100
AcDbVertex
100
AcDb2dVertex
 10
366.6367078076464
 20
-74.53946395705958
 30
0.0
  0
VERTEX
  5
33E
330
33C
100
AcDbEntity
  8
Layer 1
 62
   250
370
    25
100
AcDbVertex
100
AcDb2dVertex
 10
366.6367078076464
 20
23.53241373109606
 30
0.0
  0
SEQEND
  5
33F
330
33C
100
AcDbEntity
  8
Layer 1
370
    25
  0
POLYLINE
  5
340
330
1F
100
AcDbEntity
  8
Layer 1
 62
   250
370
    25
100
AcDb2dPolyline
 66
     1
 10
0.0
 20
0.0
 30
0.0
  0
VERTEX
  5
341
330
340
100
AcDbEntity
  8
Layer 1
 62
   250
370
    25
100
AcDbVertex
100
AcDb2dVertex
 10
366.6367078076464
 20
23.53241373109606
 30
0.0
  0
VERTEX
  5
342
330
340
100
AcDbEntity
  8
Layer 1
 62
   250
370
    25
100
AcDbVertex
100
AcDb2dVertex
 10
362.1449923139776
 20
23.53241373109606
 30
0.0
  0
SEQEND
  5
343
330
340
100
AcDbEntity
  8
Layer 1
370
    25
  0
ENDSEC
  0
SECTION
  2
OBJECTS
  0
DICTIONARY
  5
C
330
0
100
AcDbDictionary
281
     1
  3
ACAD_GROUP
350
D
  3
ACAD_LAYOUT
350
1A
  3
ACAD_MLINESTYLE
350
17
  3
ACAD_PLOTSETTINGS
350
19
  3
ACAD_PLOTSTYLENAME
350
E
  3
ACAD_TABLESTYLE
350
344
  3
ACAD_VISUALSTYLE
350
2A
  0
DICTIONARY
  5
D
102
{ACAD_REACTORS
330
C
102
}
330
C
100
AcDbDictionary
281
     1
  0
DICTIONARY
  5
1A
102
{ACAD_REACTORS
330
C
102
}
330
C
100
AcDbDictionary
281
     1
  3
Layout1
350
1E
  3
Layout2
350
26
  3
Model
350
22
  0
DICTIONARY
  5
17
102
{ACAD_REACTORS
330
C
102
}
330
C
100
AcDbDictionary
281
     1
  3
Standard
350
18
  0
DICTIONARY
  5
19
102
{ACAD_REACTORS
330
C
102
}
330
C
100
AcDbDictionary
281
     1
  0
ACDBDICTIONARYWDFLT
  5
E
102
{ACAD_REACTORS
330
C
102
}
330
C
100
AcDbDictionary
281
     1
  3
Normal
350
F
100
AcDbDictionaryWithDefault
340
F
  0
DICTIONARY
  5
344
102
{ACAD_REACTORS
330
C
102
}
330
C
100
AcDbDictionary
281
     1
  0
DICTIONARY
  5
2A
102
{ACAD_REACTORS
330
C
102
}
330
C
100
AcDbDictionary
281
     1
  3
2dWireframe
350
2F
  3
3D Hidden
350
31
  3
3dWireframe
350
30
  3
Basic
350
32
  3
Brighten
350
36
  3
ColorChange
350
3A
  3
Conceptual
350
34
  3
Dim
350
35
  3
Facepattern
350
39
  3
Flat
350
2B
  3
FlatWithEdges
350
2C
  3
Gouraud
350
2D
  3
GouraudWithEdges
350
2E
  3
Linepattern
350
38
  3
Realistic
350
33
  3
Thicken
350
37
  0
LAYOUT
  5
1E
102
{ACAD_REACTORS
330
1A
102
}
330
1A
100
AcDbPlotSettings
  1

  2
none_device
  4

  6

 40
0.0
 41
0.0
 42
0.0
 43
0.0
 44
0.0
 45
0.0
 46
0.0
 47
0.0
 48
0.0
 49
0.0
140
0.0
141
0.0
142
1.0
143
1.0
 70
   688
 72
     0
 73
     0
 74
     5
  7

 75
    16
147
1.0
148
0.0
149
0.0
100
AcDbLayout
  1
Layout1
 70
     1
 71
     1
 10
0.0
 20
0.0
 11
12.0
 21
9.0
 12
0.0
 22
0.0
 32
0.0
 14
1.000000000000000E+20
 24
1.000000000000000E+20
 34
1.000000000000000E+20
 15
-1.000000000000000E+20
 25
-1.000000000000000E+20
 35
-1.000000000000000E+20
146
0.0
 13
0.0
 23
0.0
 33
0.0
 16
1.0
 26
0.0
 36
0.0
 17
0.0
 27
1.0
 37
0.0
 76
     0
330
1B
  0
LAYOUT
  5
26
102
{ACAD_REACTORS
330
1A
102
}
330
1A
100
AcDbPlotSettings
  1

  2
none_device
  4

  6

 40
0.0
 41
0.0
 42
0.0
 43
0.0
 44
0.0
 45
0.0
 46
0.0
 47
0.0
 48
0.0
 49
0.0
140
0.0
141
0.0
142
1.0
143
1.0
 70
   688
 72
     0
 73
     0
 74
     5
  7

 75
    16
147
1.0
148
0.0
149
0.0
100
AcDbLayout
  1
Layout2
 70
     1
 71
     2
 10
0.0
 20
0.0
 11
0.0
 21
0.0
 12
0.0
 22
0.0
 32
0.0
 14
0.0
 24
0.0
 34
0.0
 15
0.0
 25
0.0
 35
0.0
146
0.0
 13
0.0
 23
0.0
 33
0.0
 16
1.0
 26
0.0
 36
0.0
 17
0.0
 27
1.0
 37
0.0
 76
     0
330
23
  0
LAYOUT
  5
22
102
{ACAD_REACTORS
330
1A
102
}
330
1A
100
AcDbPlotSettings
  1

  2
none_device
  4

  6

 40
0.0
 41
0.0
 42
0.0
 43
0.0
 44
0.0
 45
0.0
 46
0.0
 47
0.0
 48
0.0
 49
0.0
140
0.0
141
0.0
142
1.0
143
1.0
 70
  1712
 72
     0
 73
     0
 74
     0
  7

 75
     0
147
1.0
148
0.0
149
0.0
100
AcDbLayout
  1
Model
 70
     1
 71
     0
 10
0.0
 20
0.0
 11
12.0
 21
9.0
 12
0.0
 22
0.0
 32
0.0
 14
1.000000000000000E+20
 24
1.000000000000000E+20
 34
1.000000000000000E+20
 15
-1.000000000000000E+20
 25
-1.000000000000000E+20
 35
-1.000000000000000E+20
146
0.0
 13
0.0
 23
0.0
 33
0.0
 16
1.0
 26
0.0
 36
0.0
 17
0.0
 27
1.0
 37
0.0
 76
     0
330
1F
331
29
  0
MLINESTYLE
  5
18
102
{ACAD_REACTORS
330
17
102
}
330
17
100
AcDbMlineStyle
  2
Standard
 70
     0
  3

 62
   256
 51
90.0
 52
90.0
 71
     2
 49
0.5
 62
   256
  6
BYLAYER
 49
-0.5
 62
   256
  6
BYLAYER
  0
ACDBPLACEHOLDER
  5
F
102
{ACAD_REACTORS
330
E
102
}
330
E
  0
VISUALSTYLE
  5
2F
102
{ACAD_REACTORS
330
2A
102
}
330
2A
100
AcDbVisualStyle
  2
2dWireframe
 70
     4
 71
     0
 72
     2
 73
     0
 90
        0
 40
-0.6
 41
-30.0
 62
     5
 63
     7
 74
     1
 91
        4
 64
     7
 65
   257
 75
     1
175
     1
 42
1.0
 92
        0
 66
   257
 43
1.0
 76
     1
 77
     6
 78
     2
 67
     7
 79
     5
170
     0
171
     0
290
     0
174
     0
 93
        1
 44
0.0
173
     0
291
     0
 45
0.0
1001
ACAD
1000
AcDbSavedByObjectVersion
1070
     0
  0
VISUALSTYLE
  5
31
102
{ACAD_REACTORS
330
2A
102
}
330
2A
100
AcDbVisualStyle
  2
3D Hidden
 70
     6
 71
     1
 72
     2
 73
     2
 90
        0
 40
-0.6
 41
-30.0
 62
     5
 63
     7
 74
     2
 91
        2
 64
     7
 65
   257
 75
     2
175
     1
 42
40.0
 92
        0
 66
   257
 43
1.0
 76
     1
 77
     6
 78
     2
 67
     7
 79
     3
170
     0
171
     0
290
     0
174
     0
 93
        1
 44
0.0
173
     0
291
     0
 45
0.0
1001
ACAD
1000
AcDbSavedByObjectVersion
1070
     0
  0
VISUALSTYLE
  5
30
102
{ACAD_REACTORS
330
2A
102
}
330
2A
100
AcDbVisualStyle
  2
3dWireframe
 70
     5
 71
     0
 72
     2
 73
     0
 90
        0
 40
-0.6
 41
-30.0
 62
     5
 63
     7
 74
     1
 91
        4
 64
     7
 65
   257
 75
     1
175
     1
 42
1.0
 92
        0
 66
   257
 43
1.0
 76
     1
 77
     6
 78
     2
 67
     7
 79
     5
170
     0
171
     0
290
     0
174
     0
 93
        1
 44
0.0
173
     0
291
     0
 45
0.0
1001
ACAD
1000
AcDbSavedByObjectVersion
1070
     0
  0
VISUALSTYLE
  5
32
102
{ACAD_REACTORS
330
2A
102
}
330
2A
100
AcDbVisualStyle
  2
Basic
 70
     7
 71
     1
 72
     0
 73
     1
 90
        0
 40
-0.6
 41
-30.0
 62
     5
 63
     7
 74
     0
 91
        4
 64
     7
 65
   257
 75
     1
175
     1
 42
1.0
 92
        8
 66
     7
 43
1.0
 76
     1
 77
     6
 78
     2
 67
     7
 79
     5
170
     0
171
     0
290
     0
174
     0
 93
        1
 44
0.0
173
     0
291
     1
 45
0.0
1001
ACAD
1000
AcDbSavedByObjectVersion
1070
     0
  0
VISUALSTYLE
  5
36
102
{ACAD_REACTORS
330
2A
102
}
330
2A
100
AcDbVisualStyle
  2
Brighten
 70
    12
 71
     2
 72
     2
 73
     0
 90
        0
 40
-0.6
 41
-30.0
 62
     5
 63
     7
 74
     1
 91
        4
 64
     7
 65
   257
 75
     1
175
     1
 42
1.0
 92
        8
 66
     7
 43
1.0
 76
     1
 77
     6
 78
     2
 67
     7
 79
     5
170
     0
171
     0
290
     0
174
     0
 93
        1
 44
50.0
173
     0
291
     1
 45
0.0
1001
ACAD
1000
AcDbSavedByObjectVersion
1070
     0
  0
VISUALSTYLE
  5
3A
102
{ACAD_REACTORS
330
2A
102
}
330
2A
100
AcDbVisualStyle
  2
ColorChange
 70
    16
 71
     2
 72
     2
 73
     3
 90
        0
 40
-0.6
 41
-30.0
 62
     5
 63
     8
 74
     1
 91
        4
 64
     7
 65
   257
 75
     1
175
     1
 42
1.0
 92
        8
 66
     8
 43
1.0
 76
     1
 77
     6
 78
     2
 67
     7
 79
     5
170
     0
171
     0
290
     0
174
     0
 93
        1
 44
0.0
173
     0
291
     1
 45
0.0
1001
ACAD
1000
AcDbSavedByObjectVersion
1070
     0
  0
VISUALSTYLE
  5
34
102
{ACAD_REACTORS
330
2A
102
}
330
2A
100
AcDbVisualStyle
  2
Conceptual
 70
     9
 71
     3
 72
     2
 73
     0
 90
        0
 40
-0.6
 41
-30.0
 62
     5
 63
     7
 74
     2
 91
        2
 64
     7
 65
   257
 75
     1
175
     1
 42
40.0
 92
        8
 66
     7
 43
1.0
 76
     1
 77
     6
 78
     2
 67
     7
 79
     3
170
     0
171
     0
290
     0
174
     0
 93
        1
 44
0.0
173
     0
291
     0
 45
0.0
1001
ACAD
1000
AcDbSavedByObjectVersion
1070
     0
  0
VISUALSTYLE
  5
35
102
{ACAD_REACTORS
330
2A
102
}
330
2A
100
AcDbVisualStyle
  2
Dim
 70
    11
 71
     2
 72
     2
 73
     0
 90
        0
 40
-0.6
 41
-30.0
 62
     5
 63
     7
 74
     1
 91
        4
 64
     7
 65
   257
 75
     1
175
     1
 42
1.0
 92
        8
 66
     7
 43
1.0
 76
     1
 77
     6
 78
     2
 67
     7
 79
     5
170
     0
171
     0
290
     0
174
     0
 93
        1
 44
-50.0
173
     0
291
     1
 45
0.0
1001
ACAD
1000
AcDbSavedByObjectVersion
1070
     0
  0
VISUALSTYLE
  5
39
102
{ACAD_REACTORS
330
2A
102
}
330
2A
100
AcDbVisualStyle
  2
Facepattern
 70
    15
 71
     2
 72
     2
 73
     0
 90
        0
 40
-0.6
 41
-30.0
 62
     5
 63
     7
 74
     1
 91
        4
 64
     7
 65
   257
 75
     1
175
     1
 42
1.0
 92
        8
 66
     7
 43
1.0
 76
     1
 77
     6
 78
     2
 67
     7
 79
     5
170
     0
171
     0
290
     0
174
     0
 93
        1
 44
0.0
173
     0
291
     1
 45
0.0
1001
ACAD
1000
AcDbSavedByObjectVersion
1070
     0
  0
VISUALSTYLE
  5
2B
102
{ACAD_REACTORS
330
2A
102
}
330
2A
100
AcDbVisualStyle
  2
Flat
 70
     0
 71
     2
 72
     1
 73
     1
 90
        2
 40
-0.6
 41
30.0
 62
     5
 63
     7
 74
     0
 91
        4
 64
     7
 65
   257
 75
     1
175
     1
 42
1.0
 92
        8
 66
     7
 43
1.0
 76
     1
 77
     6
 78
     2
 67
     7
 79
     5
170
     0
171
     0
290
     0
174
     0
 93
       13
 44
0.0
173
     0
291
     1
 45
0.0
1001
ACAD
1000
AcDbSavedByObjectVersion
1070
     0
  0
VISUALSTYLE
  5
2C
102
{ACAD_REACTORS
330
2A
102
}
330
2A
100
AcDbVisualStyle
  2
FlatWithEdges
 70
     1
 71
     2
 72
     1
 73
     1
 90
        2
 40
-0.6
 41
30.0
 62
     5
 63
     7
 74
     1
 91
        4
 64
     7
 65
   257
 75
     1
175
     1
 42
1.0
 92
        0
 66
   257
 43
1.0
 76
     1
 77
     6
 78
     2
 67
     7
 79
     5
170
     0
171
     0
290
     0
174
     0
 93
       13
 44
0.0
173
     0
291
     1
 45
0.0
1001
ACAD
1000
AcDbSavedByObjectVersion
1070
     0
  0
VISUALSTYLE
  5
2D
102
{ACAD_REACTORS
330
2A
102
}
330
2A
100
AcDbVisualStyle
  2
Gouraud
 70
     2
 71
     2
 72
     2
 73
     1
 90
        2
 40
-0.6
 41
30.0
 62
     5
 63
     7
 74
     0
 91
        4
 64
     7
 65
   257
 75
     1
175
     1
 42
1.0
 92
        0
 66
     7
 43
1.0
 76
     1
 77
     6
 78
     2
 67
     7
 79
     5
170
     0
171
     0
290
     0
174
     0
 93
       13
 44
0.0
173
     0
291
     1
 45
0.0
1001
ACAD
1000
AcDbSavedByObjectVersion
1070
     0
  0
VISUALSTYLE
  5
2E
102
{ACAD_REACTORS
330
2A
102
}
330
2A
100
AcDbVisualStyle
  2
GouraudWithEdges
 70
     3
 71
     2
 72
     2
 73
     1
 90
        2
 40
-0.6
 41
30.0
 62
     5
 63
     7
 74
     1
 91
        4
 64
     7
 65
   257
 75
     1
175
     1
 42
1.0
 92
        0
 66
   257
 43
1.0
 76
     1
 77
     6
 78
     2
 67
     7
 79
     5
170
     0
171
     0
290
     0
174
     0
 93
       13
 44
0.0
173
     0
291
     1
 45
0.0
1001
ACAD
1000
AcDbSavedByObjectVersion
1070
     0
  0
VISUALSTYLE
  5
38
102
{ACAD_REACTORS
330
2A
102
}
330
2A
100
AcDbVisualStyle
  2
Linepattern
 70
    14
 71
     2
 72
     2
 73
     0
 90
        0
 40
-0.6
 41
-30.0
 62
     5
 63
     7
 74
     1
 91
        4
 64
     7
 65
   257
 75
     7
175
     7
 42
1.0
 92
        8
 66
     7
 43
1.0
 76
     1
 77
     6
 78
     2
 67
     7
 79
     5
170
     0
171
     0
290
     0
174
     0
 93
        1
 44
0.0
173
     0
291
     1
 45
0.0
1001
ACAD
1000
AcDbSavedByObjectVersion
1070
     0
  0
VISUALSTYLE
  5
33
102
{ACAD_REACTORS
330
2A
102
}
330
2A
100
AcDbVisualStyle
  2
Realistic
 70
     8
 71
     2
 72
     2
 73
     0
 90
        0
 40
-0.6
 41
-30.0
 62
     5
 63
     7
 74
     1
 91
        0
 64
     7
 65
   257
 75
     1
175
     1
 42
1.0
 92
        8
 66
     8
 43
1.0
 76
     1
 77
     6
 78
     2
 67
     7
 79
     5
170
     0
171
     0
290
     0
174
     0
 93
       13
 44
0.0
173
     0
291
     0
 45
0.0
1001
ACAD
1000
AcDbSavedByObjectVersion
1070
     0
  0
VISUALSTYLE
  5
37
102
{ACAD_REACTORS
330
2A
102
}
330
2A
100
AcDbVisualStyle
  2
Thicken
 70
    13
 71
     2
 72
     2
 73
     0
 90
        0
 40
-0.6
 41
-30.0
 62
     5
 63
     7
 74
     1
 91
        4
 64
     7
 65
   257
 75
     1
175
     1
 42
1.0
 92
       12
 66
     7
 43
1.0
 76
     1
 77
     6
 78
     2
 67
     7
 79
     5
170
     0
171
     0
290
     0
174
     0
 93
        1
 44
0.0
173
     0
291
     1
 45
0.0
1001
ACAD
1000
AcDbSavedByObjectVersion
1070
     0
  0
ENDSEC
  0
EOF
